%TF.GenerationSoftware,KiCad,Pcbnew,(6.0.8)*%
%TF.CreationDate,2023-07-18T09:46:37-04:00*%
%TF.ProjectId,Hbrige_MotorController,48627269-6765-45f4-9d6f-746f72436f6e,rev?*%
%TF.SameCoordinates,Original*%
%TF.FileFunction,Legend,Top*%
%TF.FilePolarity,Positive*%
%FSLAX46Y46*%
G04 Gerber Fmt 4.6, Leading zero omitted, Abs format (unit mm)*
G04 Created by KiCad (PCBNEW (6.0.8)) date 2023-07-18 09:46:37*
%MOMM*%
%LPD*%
G01*
G04 APERTURE LIST*
%ADD10C,0.150000*%
%ADD11C,0.120000*%
G04 APERTURE END LIST*
D10*
X159302142Y-105309523D02*
X159349761Y-105357142D01*
X159397380Y-105500000D01*
X159397380Y-105595238D01*
X159349761Y-105738095D01*
X159254523Y-105833333D01*
X159159285Y-105880952D01*
X158968809Y-105928571D01*
X158825952Y-105928571D01*
X158635476Y-105880952D01*
X158540238Y-105833333D01*
X158445000Y-105738095D01*
X158397380Y-105595238D01*
X158397380Y-105500000D01*
X158445000Y-105357142D01*
X158492619Y-105309523D01*
X159397380Y-104452380D02*
X158873571Y-104452380D01*
X158778333Y-104500000D01*
X158730714Y-104595238D01*
X158730714Y-104785714D01*
X158778333Y-104880952D01*
X159349761Y-104452380D02*
X159397380Y-104547619D01*
X159397380Y-104785714D01*
X159349761Y-104880952D01*
X159254523Y-104928571D01*
X159159285Y-104928571D01*
X159064047Y-104880952D01*
X159016428Y-104785714D01*
X159016428Y-104547619D01*
X158968809Y-104452380D01*
X158730714Y-103976190D02*
X159397380Y-103976190D01*
X158825952Y-103976190D02*
X158778333Y-103928571D01*
X158730714Y-103833333D01*
X158730714Y-103690476D01*
X158778333Y-103595238D01*
X158873571Y-103547619D01*
X159397380Y-103547619D01*
X158873571Y-102738095D02*
X158921190Y-102595238D01*
X158968809Y-102547619D01*
X159064047Y-102500000D01*
X159206904Y-102500000D01*
X159302142Y-102547619D01*
X159349761Y-102595238D01*
X159397380Y-102690476D01*
X159397380Y-103071428D01*
X158397380Y-103071428D01*
X158397380Y-102738095D01*
X158445000Y-102642857D01*
X158492619Y-102595238D01*
X158587857Y-102547619D01*
X158683095Y-102547619D01*
X158778333Y-102595238D01*
X158825952Y-102642857D01*
X158873571Y-102738095D01*
X158873571Y-103071428D01*
X158730714Y-101642857D02*
X159397380Y-101642857D01*
X158730714Y-102071428D02*
X159254523Y-102071428D01*
X159349761Y-102023809D01*
X159397380Y-101928571D01*
X159397380Y-101785714D01*
X159349761Y-101690476D01*
X159302142Y-101642857D01*
X159349761Y-101214285D02*
X159397380Y-101119047D01*
X159397380Y-100928571D01*
X159349761Y-100833333D01*
X159254523Y-100785714D01*
X159206904Y-100785714D01*
X159111666Y-100833333D01*
X159064047Y-100928571D01*
X159064047Y-101071428D01*
X159016428Y-101166666D01*
X158921190Y-101214285D01*
X158873571Y-101214285D01*
X158778333Y-101166666D01*
X158730714Y-101071428D01*
X158730714Y-100928571D01*
X158778333Y-100833333D01*
X159397380Y-99595238D02*
X158397380Y-99595238D01*
X158873571Y-99595238D02*
X158873571Y-99023809D01*
X159397380Y-99023809D02*
X158397380Y-99023809D01*
X159016428Y-98547619D02*
X159016428Y-97785714D01*
X158873571Y-96976190D02*
X158921190Y-96833333D01*
X158968809Y-96785714D01*
X159064047Y-96738095D01*
X159206904Y-96738095D01*
X159302142Y-96785714D01*
X159349761Y-96833333D01*
X159397380Y-96928571D01*
X159397380Y-97309523D01*
X158397380Y-97309523D01*
X158397380Y-96976190D01*
X158445000Y-96880952D01*
X158492619Y-96833333D01*
X158587857Y-96785714D01*
X158683095Y-96785714D01*
X158778333Y-96833333D01*
X158825952Y-96880952D01*
X158873571Y-96976190D01*
X158873571Y-97309523D01*
X159397380Y-96309523D02*
X158730714Y-96309523D01*
X158921190Y-96309523D02*
X158825952Y-96261904D01*
X158778333Y-96214285D01*
X158730714Y-96119047D01*
X158730714Y-96023809D01*
X159397380Y-95690476D02*
X158730714Y-95690476D01*
X158397380Y-95690476D02*
X158445000Y-95738095D01*
X158492619Y-95690476D01*
X158445000Y-95642857D01*
X158397380Y-95690476D01*
X158492619Y-95690476D01*
X159397380Y-94785714D02*
X158397380Y-94785714D01*
X159349761Y-94785714D02*
X159397380Y-94880952D01*
X159397380Y-95071428D01*
X159349761Y-95166666D01*
X159302142Y-95214285D01*
X159206904Y-95261904D01*
X158921190Y-95261904D01*
X158825952Y-95214285D01*
X158778333Y-95166666D01*
X158730714Y-95071428D01*
X158730714Y-94880952D01*
X158778333Y-94785714D01*
X158730714Y-93880952D02*
X159540238Y-93880952D01*
X159635476Y-93928571D01*
X159683095Y-93976190D01*
X159730714Y-94071428D01*
X159730714Y-94214285D01*
X159683095Y-94309523D01*
X159349761Y-93880952D02*
X159397380Y-93976190D01*
X159397380Y-94166666D01*
X159349761Y-94261904D01*
X159302142Y-94309523D01*
X159206904Y-94357142D01*
X158921190Y-94357142D01*
X158825952Y-94309523D01*
X158778333Y-94261904D01*
X158730714Y-94166666D01*
X158730714Y-93976190D01*
X158778333Y-93880952D01*
X159349761Y-93023809D02*
X159397380Y-93119047D01*
X159397380Y-93309523D01*
X159349761Y-93404761D01*
X159254523Y-93452380D01*
X158873571Y-93452380D01*
X158778333Y-93404761D01*
X158730714Y-93309523D01*
X158730714Y-93119047D01*
X158778333Y-93023809D01*
X158873571Y-92976190D01*
X158968809Y-92976190D01*
X159064047Y-93452380D01*
X161007380Y-107928571D02*
X160007380Y-107928571D01*
X160007380Y-107690476D01*
X160055000Y-107547619D01*
X160150238Y-107452380D01*
X160245476Y-107404761D01*
X160435952Y-107357142D01*
X160578809Y-107357142D01*
X160769285Y-107404761D01*
X160864523Y-107452380D01*
X160959761Y-107547619D01*
X161007380Y-107690476D01*
X161007380Y-107928571D01*
X160959761Y-106547619D02*
X161007380Y-106642857D01*
X161007380Y-106833333D01*
X160959761Y-106928571D01*
X160864523Y-106976190D01*
X160483571Y-106976190D01*
X160388333Y-106928571D01*
X160340714Y-106833333D01*
X160340714Y-106642857D01*
X160388333Y-106547619D01*
X160483571Y-106500000D01*
X160578809Y-106500000D01*
X160674047Y-106976190D01*
X160959761Y-106119047D02*
X161007380Y-106023809D01*
X161007380Y-105833333D01*
X160959761Y-105738095D01*
X160864523Y-105690476D01*
X160816904Y-105690476D01*
X160721666Y-105738095D01*
X160674047Y-105833333D01*
X160674047Y-105976190D01*
X160626428Y-106071428D01*
X160531190Y-106119047D01*
X160483571Y-106119047D01*
X160388333Y-106071428D01*
X160340714Y-105976190D01*
X160340714Y-105833333D01*
X160388333Y-105738095D01*
X161007380Y-105261904D02*
X160340714Y-105261904D01*
X160007380Y-105261904D02*
X160055000Y-105309523D01*
X160102619Y-105261904D01*
X160055000Y-105214285D01*
X160007380Y-105261904D01*
X160102619Y-105261904D01*
X160340714Y-104357142D02*
X161150238Y-104357142D01*
X161245476Y-104404761D01*
X161293095Y-104452380D01*
X161340714Y-104547619D01*
X161340714Y-104690476D01*
X161293095Y-104785714D01*
X160959761Y-104357142D02*
X161007380Y-104452380D01*
X161007380Y-104642857D01*
X160959761Y-104738095D01*
X160912142Y-104785714D01*
X160816904Y-104833333D01*
X160531190Y-104833333D01*
X160435952Y-104785714D01*
X160388333Y-104738095D01*
X160340714Y-104642857D01*
X160340714Y-104452380D01*
X160388333Y-104357142D01*
X160340714Y-103880952D02*
X161007380Y-103880952D01*
X160435952Y-103880952D02*
X160388333Y-103833333D01*
X160340714Y-103738095D01*
X160340714Y-103595238D01*
X160388333Y-103500000D01*
X160483571Y-103452380D01*
X161007380Y-103452380D01*
X160959761Y-102595238D02*
X161007380Y-102690476D01*
X161007380Y-102880952D01*
X160959761Y-102976190D01*
X160864523Y-103023809D01*
X160483571Y-103023809D01*
X160388333Y-102976190D01*
X160340714Y-102880952D01*
X160340714Y-102690476D01*
X160388333Y-102595238D01*
X160483571Y-102547619D01*
X160578809Y-102547619D01*
X160674047Y-103023809D01*
X161007380Y-101690476D02*
X160007380Y-101690476D01*
X160959761Y-101690476D02*
X161007380Y-101785714D01*
X161007380Y-101976190D01*
X160959761Y-102071428D01*
X160912142Y-102119047D01*
X160816904Y-102166666D01*
X160531190Y-102166666D01*
X160435952Y-102119047D01*
X160388333Y-102071428D01*
X160340714Y-101976190D01*
X160340714Y-101785714D01*
X160388333Y-101690476D01*
X161007380Y-100452380D02*
X160007380Y-100452380D01*
X160388333Y-100452380D02*
X160340714Y-100357142D01*
X160340714Y-100166666D01*
X160388333Y-100071428D01*
X160435952Y-100023809D01*
X160531190Y-99976190D01*
X160816904Y-99976190D01*
X160912142Y-100023809D01*
X160959761Y-100071428D01*
X161007380Y-100166666D01*
X161007380Y-100357142D01*
X160959761Y-100452380D01*
X160340714Y-99642857D02*
X161007380Y-99404761D01*
X160340714Y-99166666D02*
X161007380Y-99404761D01*
X161245476Y-99500000D01*
X161293095Y-99547619D01*
X161340714Y-99642857D01*
X160912142Y-97452380D02*
X160959761Y-97500000D01*
X161007380Y-97642857D01*
X161007380Y-97738095D01*
X160959761Y-97880952D01*
X160864523Y-97976190D01*
X160769285Y-98023809D01*
X160578809Y-98071428D01*
X160435952Y-98071428D01*
X160245476Y-98023809D01*
X160150238Y-97976190D01*
X160055000Y-97880952D01*
X160007380Y-97738095D01*
X160007380Y-97642857D01*
X160055000Y-97500000D01*
X160102619Y-97452380D01*
X161007380Y-96880952D02*
X160959761Y-96976190D01*
X160912142Y-97023809D01*
X160816904Y-97071428D01*
X160531190Y-97071428D01*
X160435952Y-97023809D01*
X160388333Y-96976190D01*
X160340714Y-96880952D01*
X160340714Y-96738095D01*
X160388333Y-96642857D01*
X160435952Y-96595238D01*
X160531190Y-96547619D01*
X160816904Y-96547619D01*
X160912142Y-96595238D01*
X160959761Y-96642857D01*
X161007380Y-96738095D01*
X161007380Y-96880952D01*
X161007380Y-95690476D02*
X160007380Y-95690476D01*
X160959761Y-95690476D02*
X161007380Y-95785714D01*
X161007380Y-95976190D01*
X160959761Y-96071428D01*
X160912142Y-96119047D01*
X160816904Y-96166666D01*
X160531190Y-96166666D01*
X160435952Y-96119047D01*
X160388333Y-96071428D01*
X160340714Y-95976190D01*
X160340714Y-95785714D01*
X160388333Y-95690476D01*
X160340714Y-95309523D02*
X161007380Y-95071428D01*
X160340714Y-94833333D02*
X161007380Y-95071428D01*
X161245476Y-95166666D01*
X161293095Y-95214285D01*
X161340714Y-95309523D01*
X160055000Y-93166666D02*
X160007380Y-93261904D01*
X160007380Y-93404761D01*
X160055000Y-93547619D01*
X160150238Y-93642857D01*
X160245476Y-93690476D01*
X160435952Y-93738095D01*
X160578809Y-93738095D01*
X160769285Y-93690476D01*
X160864523Y-93642857D01*
X160959761Y-93547619D01*
X161007380Y-93404761D01*
X161007380Y-93309523D01*
X160959761Y-93166666D01*
X160912142Y-93119047D01*
X160578809Y-93119047D01*
X160578809Y-93309523D01*
X161007380Y-92690476D02*
X160340714Y-92690476D01*
X160531190Y-92690476D02*
X160435952Y-92642857D01*
X160388333Y-92595238D01*
X160340714Y-92500000D01*
X160340714Y-92404761D01*
X161007380Y-91642857D02*
X160483571Y-91642857D01*
X160388333Y-91690476D01*
X160340714Y-91785714D01*
X160340714Y-91976190D01*
X160388333Y-92071428D01*
X160959761Y-91642857D02*
X161007380Y-91738095D01*
X161007380Y-91976190D01*
X160959761Y-92071428D01*
X160864523Y-92119047D01*
X160769285Y-92119047D01*
X160674047Y-92071428D01*
X160626428Y-91976190D01*
X160626428Y-91738095D01*
X160578809Y-91642857D01*
X160340714Y-91166666D02*
X161007380Y-91166666D01*
X160435952Y-91166666D02*
X160388333Y-91119047D01*
X160340714Y-91023809D01*
X160340714Y-90880952D01*
X160388333Y-90785714D01*
X160483571Y-90738095D01*
X161007380Y-90738095D01*
X161007380Y-89833333D02*
X160007380Y-89833333D01*
X160959761Y-89833333D02*
X161007380Y-89928571D01*
X161007380Y-90119047D01*
X160959761Y-90214285D01*
X160912142Y-90261904D01*
X160816904Y-90309523D01*
X160531190Y-90309523D01*
X160435952Y-90261904D01*
X160388333Y-90214285D01*
X160340714Y-90119047D01*
X160340714Y-89928571D01*
X160388333Y-89833333D01*
X160340714Y-89452380D02*
X161007380Y-89214285D01*
X160340714Y-88976190D02*
X161007380Y-89214285D01*
X161245476Y-89309523D01*
X161293095Y-89357142D01*
X161340714Y-89452380D01*
%TO.C,C2*%
X214177142Y-79966666D02*
X214224761Y-80014285D01*
X214272380Y-80157142D01*
X214272380Y-80252380D01*
X214224761Y-80395238D01*
X214129523Y-80490476D01*
X214034285Y-80538095D01*
X213843809Y-80585714D01*
X213700952Y-80585714D01*
X213510476Y-80538095D01*
X213415238Y-80490476D01*
X213320000Y-80395238D01*
X213272380Y-80252380D01*
X213272380Y-80157142D01*
X213320000Y-80014285D01*
X213367619Y-79966666D01*
X213367619Y-79585714D02*
X213320000Y-79538095D01*
X213272380Y-79442857D01*
X213272380Y-79204761D01*
X213320000Y-79109523D01*
X213367619Y-79061904D01*
X213462857Y-79014285D01*
X213558095Y-79014285D01*
X213700952Y-79061904D01*
X214272380Y-79633333D01*
X214272380Y-79014285D01*
%TO.C,C3*%
X225857142Y-87416666D02*
X225904761Y-87464285D01*
X225952380Y-87607142D01*
X225952380Y-87702380D01*
X225904761Y-87845238D01*
X225809523Y-87940476D01*
X225714285Y-87988095D01*
X225523809Y-88035714D01*
X225380952Y-88035714D01*
X225190476Y-87988095D01*
X225095238Y-87940476D01*
X225000000Y-87845238D01*
X224952380Y-87702380D01*
X224952380Y-87607142D01*
X225000000Y-87464285D01*
X225047619Y-87416666D01*
X224952380Y-87083333D02*
X224952380Y-86464285D01*
X225333333Y-86797619D01*
X225333333Y-86654761D01*
X225380952Y-86559523D01*
X225428571Y-86511904D01*
X225523809Y-86464285D01*
X225761904Y-86464285D01*
X225857142Y-86511904D01*
X225904761Y-86559523D01*
X225952380Y-86654761D01*
X225952380Y-86940476D01*
X225904761Y-87035714D01*
X225857142Y-87083333D01*
%TO.C,D12*%
X171035714Y-120772380D02*
X171035714Y-119772380D01*
X171273809Y-119772380D01*
X171416666Y-119820000D01*
X171511904Y-119915238D01*
X171559523Y-120010476D01*
X171607142Y-120200952D01*
X171607142Y-120343809D01*
X171559523Y-120534285D01*
X171511904Y-120629523D01*
X171416666Y-120724761D01*
X171273809Y-120772380D01*
X171035714Y-120772380D01*
X172559523Y-120772380D02*
X171988095Y-120772380D01*
X172273809Y-120772380D02*
X172273809Y-119772380D01*
X172178571Y-119915238D01*
X172083333Y-120010476D01*
X171988095Y-120058095D01*
X172940476Y-119867619D02*
X172988095Y-119820000D01*
X173083333Y-119772380D01*
X173321428Y-119772380D01*
X173416666Y-119820000D01*
X173464285Y-119867619D01*
X173511904Y-119962857D01*
X173511904Y-120058095D01*
X173464285Y-120200952D01*
X172892857Y-120772380D01*
X173511904Y-120772380D01*
%TO.C,M1*%
X200755476Y-114462380D02*
X200755476Y-113462380D01*
X201088809Y-114176666D01*
X201422142Y-113462380D01*
X201422142Y-114462380D01*
X202422142Y-114462380D02*
X201850714Y-114462380D01*
X202136428Y-114462380D02*
X202136428Y-113462380D01*
X202041190Y-113605238D01*
X201945952Y-113700476D01*
X201850714Y-113748095D01*
%TO.C,U2*%
X168738095Y-84672380D02*
X168738095Y-85481904D01*
X168785714Y-85577142D01*
X168833333Y-85624761D01*
X168928571Y-85672380D01*
X169119047Y-85672380D01*
X169214285Y-85624761D01*
X169261904Y-85577142D01*
X169309523Y-85481904D01*
X169309523Y-84672380D01*
X169738095Y-84767619D02*
X169785714Y-84720000D01*
X169880952Y-84672380D01*
X170119047Y-84672380D01*
X170214285Y-84720000D01*
X170261904Y-84767619D01*
X170309523Y-84862857D01*
X170309523Y-84958095D01*
X170261904Y-85100952D01*
X169690476Y-85672380D01*
X170309523Y-85672380D01*
%TO.C,R3*%
X210333333Y-86202380D02*
X210000000Y-85726190D01*
X209761904Y-86202380D02*
X209761904Y-85202380D01*
X210142857Y-85202380D01*
X210238095Y-85250000D01*
X210285714Y-85297619D01*
X210333333Y-85392857D01*
X210333333Y-85535714D01*
X210285714Y-85630952D01*
X210238095Y-85678571D01*
X210142857Y-85726190D01*
X209761904Y-85726190D01*
X210666666Y-85202380D02*
X211285714Y-85202380D01*
X210952380Y-85583333D01*
X211095238Y-85583333D01*
X211190476Y-85630952D01*
X211238095Y-85678571D01*
X211285714Y-85773809D01*
X211285714Y-86011904D01*
X211238095Y-86107142D01*
X211190476Y-86154761D01*
X211095238Y-86202380D01*
X210809523Y-86202380D01*
X210714285Y-86154761D01*
X210666666Y-86107142D01*
%TO.C,*%
%TO.C,Y2*%
X213676190Y-74976190D02*
X214152380Y-74976190D01*
X213152380Y-75309523D02*
X213676190Y-74976190D01*
X213152380Y-74642857D01*
X213247619Y-74357142D02*
X213200000Y-74309523D01*
X213152380Y-74214285D01*
X213152380Y-73976190D01*
X213200000Y-73880952D01*
X213247619Y-73833333D01*
X213342857Y-73785714D01*
X213438095Y-73785714D01*
X213580952Y-73833333D01*
X214152380Y-74404761D01*
X214152380Y-73785714D01*
%TO.C,J4*%
X225807380Y-82578333D02*
X226521666Y-82578333D01*
X226664523Y-82625952D01*
X226759761Y-82721190D01*
X226807380Y-82864047D01*
X226807380Y-82959285D01*
X226140714Y-81673571D02*
X226807380Y-81673571D01*
X225759761Y-81911666D02*
X226474047Y-82149761D01*
X226474047Y-81530714D01*
%TO.C,R15*%
X188882380Y-82392857D02*
X188406190Y-82726190D01*
X188882380Y-82964285D02*
X187882380Y-82964285D01*
X187882380Y-82583333D01*
X187930000Y-82488095D01*
X187977619Y-82440476D01*
X188072857Y-82392857D01*
X188215714Y-82392857D01*
X188310952Y-82440476D01*
X188358571Y-82488095D01*
X188406190Y-82583333D01*
X188406190Y-82964285D01*
X188882380Y-81440476D02*
X188882380Y-82011904D01*
X188882380Y-81726190D02*
X187882380Y-81726190D01*
X188025238Y-81821428D01*
X188120476Y-81916666D01*
X188168095Y-82011904D01*
X187882380Y-80535714D02*
X187882380Y-81011904D01*
X188358571Y-81059523D01*
X188310952Y-81011904D01*
X188263333Y-80916666D01*
X188263333Y-80678571D01*
X188310952Y-80583333D01*
X188358571Y-80535714D01*
X188453809Y-80488095D01*
X188691904Y-80488095D01*
X188787142Y-80535714D01*
X188834761Y-80583333D01*
X188882380Y-80678571D01*
X188882380Y-80916666D01*
X188834761Y-81011904D01*
X188787142Y-81059523D01*
%TO.C,R13*%
X167607142Y-117772380D02*
X167273809Y-117296190D01*
X167035714Y-117772380D02*
X167035714Y-116772380D01*
X167416666Y-116772380D01*
X167511904Y-116820000D01*
X167559523Y-116867619D01*
X167607142Y-116962857D01*
X167607142Y-117105714D01*
X167559523Y-117200952D01*
X167511904Y-117248571D01*
X167416666Y-117296190D01*
X167035714Y-117296190D01*
X168559523Y-117772380D02*
X167988095Y-117772380D01*
X168273809Y-117772380D02*
X168273809Y-116772380D01*
X168178571Y-116915238D01*
X168083333Y-117010476D01*
X167988095Y-117058095D01*
X168892857Y-116772380D02*
X169511904Y-116772380D01*
X169178571Y-117153333D01*
X169321428Y-117153333D01*
X169416666Y-117200952D01*
X169464285Y-117248571D01*
X169511904Y-117343809D01*
X169511904Y-117581904D01*
X169464285Y-117677142D01*
X169416666Y-117724761D01*
X169321428Y-117772380D01*
X169035714Y-117772380D01*
X168940476Y-117724761D01*
X168892857Y-117677142D01*
%TO.C,C5*%
X220583333Y-78437142D02*
X220535714Y-78484761D01*
X220392857Y-78532380D01*
X220297619Y-78532380D01*
X220154761Y-78484761D01*
X220059523Y-78389523D01*
X220011904Y-78294285D01*
X219964285Y-78103809D01*
X219964285Y-77960952D01*
X220011904Y-77770476D01*
X220059523Y-77675238D01*
X220154761Y-77580000D01*
X220297619Y-77532380D01*
X220392857Y-77532380D01*
X220535714Y-77580000D01*
X220583333Y-77627619D01*
X221488095Y-77532380D02*
X221011904Y-77532380D01*
X220964285Y-78008571D01*
X221011904Y-77960952D01*
X221107142Y-77913333D01*
X221345238Y-77913333D01*
X221440476Y-77960952D01*
X221488095Y-78008571D01*
X221535714Y-78103809D01*
X221535714Y-78341904D01*
X221488095Y-78437142D01*
X221440476Y-78484761D01*
X221345238Y-78532380D01*
X221107142Y-78532380D01*
X221011904Y-78484761D01*
X220964285Y-78437142D01*
%TO.C,J2*%
X226302380Y-114833333D02*
X227016666Y-114833333D01*
X227159523Y-114880952D01*
X227254761Y-114976190D01*
X227302380Y-115119047D01*
X227302380Y-115214285D01*
X226397619Y-114404761D02*
X226350000Y-114357142D01*
X226302380Y-114261904D01*
X226302380Y-114023809D01*
X226350000Y-113928571D01*
X226397619Y-113880952D01*
X226492857Y-113833333D01*
X226588095Y-113833333D01*
X226730952Y-113880952D01*
X227302380Y-114452380D01*
X227302380Y-113833333D01*
%TO.C,C4*%
X199583333Y-75177142D02*
X199535714Y-75224761D01*
X199392857Y-75272380D01*
X199297619Y-75272380D01*
X199154761Y-75224761D01*
X199059523Y-75129523D01*
X199011904Y-75034285D01*
X198964285Y-74843809D01*
X198964285Y-74700952D01*
X199011904Y-74510476D01*
X199059523Y-74415238D01*
X199154761Y-74320000D01*
X199297619Y-74272380D01*
X199392857Y-74272380D01*
X199535714Y-74320000D01*
X199583333Y-74367619D01*
X200440476Y-74605714D02*
X200440476Y-75272380D01*
X200202380Y-74224761D02*
X199964285Y-74939047D01*
X200583333Y-74939047D01*
%TO.C,C7*%
X190333333Y-79787142D02*
X190285714Y-79834761D01*
X190142857Y-79882380D01*
X190047619Y-79882380D01*
X189904761Y-79834761D01*
X189809523Y-79739523D01*
X189761904Y-79644285D01*
X189714285Y-79453809D01*
X189714285Y-79310952D01*
X189761904Y-79120476D01*
X189809523Y-79025238D01*
X189904761Y-78930000D01*
X190047619Y-78882380D01*
X190142857Y-78882380D01*
X190285714Y-78930000D01*
X190333333Y-78977619D01*
X190666666Y-78882380D02*
X191333333Y-78882380D01*
X190904761Y-79882380D01*
%TO.C,C10*%
X178357142Y-87537142D02*
X178309523Y-87584761D01*
X178166666Y-87632380D01*
X178071428Y-87632380D01*
X177928571Y-87584761D01*
X177833333Y-87489523D01*
X177785714Y-87394285D01*
X177738095Y-87203809D01*
X177738095Y-87060952D01*
X177785714Y-86870476D01*
X177833333Y-86775238D01*
X177928571Y-86680000D01*
X178071428Y-86632380D01*
X178166666Y-86632380D01*
X178309523Y-86680000D01*
X178357142Y-86727619D01*
X179309523Y-87632380D02*
X178738095Y-87632380D01*
X179023809Y-87632380D02*
X179023809Y-86632380D01*
X178928571Y-86775238D01*
X178833333Y-86870476D01*
X178738095Y-86918095D01*
X179928571Y-86632380D02*
X180023809Y-86632380D01*
X180119047Y-86680000D01*
X180166666Y-86727619D01*
X180214285Y-86822857D01*
X180261904Y-87013333D01*
X180261904Y-87251428D01*
X180214285Y-87441904D01*
X180166666Y-87537142D01*
X180119047Y-87584761D01*
X180023809Y-87632380D01*
X179928571Y-87632380D01*
X179833333Y-87584761D01*
X179785714Y-87537142D01*
X179738095Y-87441904D01*
X179690476Y-87251428D01*
X179690476Y-87013333D01*
X179738095Y-86822857D01*
X179785714Y-86727619D01*
X179833333Y-86680000D01*
X179928571Y-86632380D01*
%TO.C,C6*%
X220583333Y-74687142D02*
X220535714Y-74734761D01*
X220392857Y-74782380D01*
X220297619Y-74782380D01*
X220154761Y-74734761D01*
X220059523Y-74639523D01*
X220011904Y-74544285D01*
X219964285Y-74353809D01*
X219964285Y-74210952D01*
X220011904Y-74020476D01*
X220059523Y-73925238D01*
X220154761Y-73830000D01*
X220297619Y-73782380D01*
X220392857Y-73782380D01*
X220535714Y-73830000D01*
X220583333Y-73877619D01*
X221440476Y-73782380D02*
X221250000Y-73782380D01*
X221154761Y-73830000D01*
X221107142Y-73877619D01*
X221011904Y-74020476D01*
X220964285Y-74210952D01*
X220964285Y-74591904D01*
X221011904Y-74687142D01*
X221059523Y-74734761D01*
X221154761Y-74782380D01*
X221345238Y-74782380D01*
X221440476Y-74734761D01*
X221488095Y-74687142D01*
X221535714Y-74591904D01*
X221535714Y-74353809D01*
X221488095Y-74258571D01*
X221440476Y-74210952D01*
X221345238Y-74163333D01*
X221154761Y-74163333D01*
X221059523Y-74210952D01*
X221011904Y-74258571D01*
X220964285Y-74353809D01*
%TO.C,Y1*%
X189526190Y-75726190D02*
X190002380Y-75726190D01*
X189002380Y-76059523D02*
X189526190Y-75726190D01*
X189002380Y-75392857D01*
X190002380Y-74535714D02*
X190002380Y-75107142D01*
X190002380Y-74821428D02*
X189002380Y-74821428D01*
X189145238Y-74916666D01*
X189240476Y-75011904D01*
X189288095Y-75107142D01*
%TO.C,J1*%
X227127380Y-85083333D02*
X227841666Y-85083333D01*
X227984523Y-85130952D01*
X228079761Y-85226190D01*
X228127380Y-85369047D01*
X228127380Y-85464285D01*
X228127380Y-84083333D02*
X228127380Y-84654761D01*
X228127380Y-84369047D02*
X227127380Y-84369047D01*
X227270238Y-84464285D01*
X227365476Y-84559523D01*
X227413095Y-84654761D01*
%TO.C,*%
%TO.C,R2*%
X206333333Y-86202380D02*
X206000000Y-85726190D01*
X205761904Y-86202380D02*
X205761904Y-85202380D01*
X206142857Y-85202380D01*
X206238095Y-85250000D01*
X206285714Y-85297619D01*
X206333333Y-85392857D01*
X206333333Y-85535714D01*
X206285714Y-85630952D01*
X206238095Y-85678571D01*
X206142857Y-85726190D01*
X205761904Y-85726190D01*
X206714285Y-85297619D02*
X206761904Y-85250000D01*
X206857142Y-85202380D01*
X207095238Y-85202380D01*
X207190476Y-85250000D01*
X207238095Y-85297619D01*
X207285714Y-85392857D01*
X207285714Y-85488095D01*
X207238095Y-85630952D01*
X206666666Y-86202380D01*
X207285714Y-86202380D01*
%TO.C,R1*%
X225333333Y-76272380D02*
X225000000Y-75796190D01*
X224761904Y-76272380D02*
X224761904Y-75272380D01*
X225142857Y-75272380D01*
X225238095Y-75320000D01*
X225285714Y-75367619D01*
X225333333Y-75462857D01*
X225333333Y-75605714D01*
X225285714Y-75700952D01*
X225238095Y-75748571D01*
X225142857Y-75796190D01*
X224761904Y-75796190D01*
X226285714Y-76272380D02*
X225714285Y-76272380D01*
X226000000Y-76272380D02*
X226000000Y-75272380D01*
X225904761Y-75415238D01*
X225809523Y-75510476D01*
X225714285Y-75558095D01*
%TO.C,J5*%
X212981666Y-113462380D02*
X212981666Y-114176666D01*
X212934047Y-114319523D01*
X212838809Y-114414761D01*
X212695952Y-114462380D01*
X212600714Y-114462380D01*
X213934047Y-113462380D02*
X213457857Y-113462380D01*
X213410238Y-113938571D01*
X213457857Y-113890952D01*
X213553095Y-113843333D01*
X213791190Y-113843333D01*
X213886428Y-113890952D01*
X213934047Y-113938571D01*
X213981666Y-114033809D01*
X213981666Y-114271904D01*
X213934047Y-114367142D01*
X213886428Y-114414761D01*
X213791190Y-114462380D01*
X213553095Y-114462380D01*
X213457857Y-114414761D01*
X213410238Y-114367142D01*
%TO.C,J3*%
X226552380Y-100583333D02*
X227266666Y-100583333D01*
X227409523Y-100630952D01*
X227504761Y-100726190D01*
X227552380Y-100869047D01*
X227552380Y-100964285D01*
X226552380Y-100202380D02*
X226552380Y-99583333D01*
X226933333Y-99916666D01*
X226933333Y-99773809D01*
X226980952Y-99678571D01*
X227028571Y-99630952D01*
X227123809Y-99583333D01*
X227361904Y-99583333D01*
X227457142Y-99630952D01*
X227504761Y-99678571D01*
X227552380Y-99773809D01*
X227552380Y-100059523D01*
X227504761Y-100154761D01*
X227457142Y-100202380D01*
%TO.C,U3*%
X180238095Y-78052380D02*
X180238095Y-78861904D01*
X180285714Y-78957142D01*
X180333333Y-79004761D01*
X180428571Y-79052380D01*
X180619047Y-79052380D01*
X180714285Y-79004761D01*
X180761904Y-78957142D01*
X180809523Y-78861904D01*
X180809523Y-78052380D01*
X181190476Y-78052380D02*
X181809523Y-78052380D01*
X181476190Y-78433333D01*
X181619047Y-78433333D01*
X181714285Y-78480952D01*
X181761904Y-78528571D01*
X181809523Y-78623809D01*
X181809523Y-78861904D01*
X181761904Y-78957142D01*
X181714285Y-79004761D01*
X181619047Y-79052380D01*
X181333333Y-79052380D01*
X181238095Y-79004761D01*
X181190476Y-78957142D01*
%TO.C,D11*%
X167035714Y-120772380D02*
X167035714Y-119772380D01*
X167273809Y-119772380D01*
X167416666Y-119820000D01*
X167511904Y-119915238D01*
X167559523Y-120010476D01*
X167607142Y-120200952D01*
X167607142Y-120343809D01*
X167559523Y-120534285D01*
X167511904Y-120629523D01*
X167416666Y-120724761D01*
X167273809Y-120772380D01*
X167035714Y-120772380D01*
X168559523Y-120772380D02*
X167988095Y-120772380D01*
X168273809Y-120772380D02*
X168273809Y-119772380D01*
X168178571Y-119915238D01*
X168083333Y-120010476D01*
X167988095Y-120058095D01*
X169511904Y-120772380D02*
X168940476Y-120772380D01*
X169226190Y-120772380D02*
X169226190Y-119772380D01*
X169130952Y-119915238D01*
X169035714Y-120010476D01*
X168940476Y-120058095D01*
%TO.C,*%
%TO.C,R14*%
X171607142Y-117772380D02*
X171273809Y-117296190D01*
X171035714Y-117772380D02*
X171035714Y-116772380D01*
X171416666Y-116772380D01*
X171511904Y-116820000D01*
X171559523Y-116867619D01*
X171607142Y-116962857D01*
X171607142Y-117105714D01*
X171559523Y-117200952D01*
X171511904Y-117248571D01*
X171416666Y-117296190D01*
X171035714Y-117296190D01*
X172559523Y-117772380D02*
X171988095Y-117772380D01*
X172273809Y-117772380D02*
X172273809Y-116772380D01*
X172178571Y-116915238D01*
X172083333Y-117010476D01*
X171988095Y-117058095D01*
X173416666Y-117105714D02*
X173416666Y-117772380D01*
X173178571Y-116724761D02*
X172940476Y-117439047D01*
X173559523Y-117439047D01*
%TO.C,C11*%
X168607142Y-114347970D02*
X168654761Y-114395589D01*
X168702380Y-114538446D01*
X168702380Y-114633684D01*
X168654761Y-114776541D01*
X168559523Y-114871779D01*
X168464285Y-114919398D01*
X168273809Y-114967017D01*
X168130952Y-114967017D01*
X167940476Y-114919398D01*
X167845238Y-114871779D01*
X167750000Y-114776541D01*
X167702380Y-114633684D01*
X167702380Y-114538446D01*
X167750000Y-114395589D01*
X167797619Y-114347970D01*
X168702380Y-113395589D02*
X168702380Y-113967017D01*
X168702380Y-113681303D02*
X167702380Y-113681303D01*
X167845238Y-113776541D01*
X167940476Y-113871779D01*
X167988095Y-113967017D01*
X168702380Y-112443208D02*
X168702380Y-113014636D01*
X168702380Y-112728922D02*
X167702380Y-112728922D01*
X167845238Y-112824160D01*
X167940476Y-112919398D01*
X167988095Y-113014636D01*
%TO.C,C1*%
X219857142Y-101871778D02*
X219904761Y-101919397D01*
X219952380Y-102062254D01*
X219952380Y-102157492D01*
X219904761Y-102300350D01*
X219809523Y-102395588D01*
X219714285Y-102443207D01*
X219523809Y-102490826D01*
X219380952Y-102490826D01*
X219190476Y-102443207D01*
X219095238Y-102395588D01*
X219000000Y-102300350D01*
X218952380Y-102157492D01*
X218952380Y-102062254D01*
X219000000Y-101919397D01*
X219047619Y-101871778D01*
X219952380Y-100919397D02*
X219952380Y-101490826D01*
X219952380Y-101205112D02*
X218952380Y-101205112D01*
X219095238Y-101300350D01*
X219190476Y-101395588D01*
X219238095Y-101490826D01*
%TO.C,C9*%
X161333333Y-85857142D02*
X161285714Y-85904761D01*
X161142857Y-85952380D01*
X161047619Y-85952380D01*
X160904761Y-85904761D01*
X160809523Y-85809523D01*
X160761904Y-85714285D01*
X160714285Y-85523809D01*
X160714285Y-85380952D01*
X160761904Y-85190476D01*
X160809523Y-85095238D01*
X160904761Y-85000000D01*
X161047619Y-84952380D01*
X161142857Y-84952380D01*
X161285714Y-85000000D01*
X161333333Y-85047619D01*
X161809523Y-85952380D02*
X162000000Y-85952380D01*
X162095238Y-85904761D01*
X162142857Y-85857142D01*
X162238095Y-85714285D01*
X162285714Y-85523809D01*
X162285714Y-85142857D01*
X162238095Y-85047619D01*
X162190476Y-85000000D01*
X162095238Y-84952380D01*
X161904761Y-84952380D01*
X161809523Y-85000000D01*
X161761904Y-85047619D01*
X161714285Y-85142857D01*
X161714285Y-85380952D01*
X161761904Y-85476190D01*
X161809523Y-85523809D01*
X161904761Y-85571428D01*
X162095238Y-85571428D01*
X162190476Y-85523809D01*
X162238095Y-85476190D01*
X162285714Y-85380952D01*
%TO.C,*%
%TO.C,C12*%
X167107142Y-114392857D02*
X167154761Y-114440476D01*
X167202380Y-114583333D01*
X167202380Y-114678571D01*
X167154761Y-114821428D01*
X167059523Y-114916666D01*
X166964285Y-114964285D01*
X166773809Y-115011904D01*
X166630952Y-115011904D01*
X166440476Y-114964285D01*
X166345238Y-114916666D01*
X166250000Y-114821428D01*
X166202380Y-114678571D01*
X166202380Y-114583333D01*
X166250000Y-114440476D01*
X166297619Y-114392857D01*
X167202380Y-113440476D02*
X167202380Y-114011904D01*
X167202380Y-113726190D02*
X166202380Y-113726190D01*
X166345238Y-113821428D01*
X166440476Y-113916666D01*
X166488095Y-114011904D01*
X166297619Y-113059523D02*
X166250000Y-113011904D01*
X166202380Y-112916666D01*
X166202380Y-112678571D01*
X166250000Y-112583333D01*
X166297619Y-112535714D01*
X166392857Y-112488095D01*
X166488095Y-112488095D01*
X166630952Y-112535714D01*
X167202380Y-113107142D01*
X167202380Y-112488095D01*
%TO.C,C8*%
X190333333Y-74287142D02*
X190285714Y-74334761D01*
X190142857Y-74382380D01*
X190047619Y-74382380D01*
X189904761Y-74334761D01*
X189809523Y-74239523D01*
X189761904Y-74144285D01*
X189714285Y-73953809D01*
X189714285Y-73810952D01*
X189761904Y-73620476D01*
X189809523Y-73525238D01*
X189904761Y-73430000D01*
X190047619Y-73382380D01*
X190142857Y-73382380D01*
X190285714Y-73430000D01*
X190333333Y-73477619D01*
X190904761Y-73810952D02*
X190809523Y-73763333D01*
X190761904Y-73715714D01*
X190714285Y-73620476D01*
X190714285Y-73572857D01*
X190761904Y-73477619D01*
X190809523Y-73430000D01*
X190904761Y-73382380D01*
X191095238Y-73382380D01*
X191190476Y-73430000D01*
X191238095Y-73477619D01*
X191285714Y-73572857D01*
X191285714Y-73620476D01*
X191238095Y-73715714D01*
X191190476Y-73763333D01*
X191095238Y-73810952D01*
X190904761Y-73810952D01*
X190809523Y-73858571D01*
X190761904Y-73906190D01*
X190714285Y-74001428D01*
X190714285Y-74191904D01*
X190761904Y-74287142D01*
X190809523Y-74334761D01*
X190904761Y-74382380D01*
X191095238Y-74382380D01*
X191190476Y-74334761D01*
X191238095Y-74287142D01*
X191285714Y-74191904D01*
X191285714Y-74001428D01*
X191238095Y-73906190D01*
X191190476Y-73858571D01*
X191095238Y-73810952D01*
%TO.C,R4*%
X161333333Y-81272380D02*
X161000000Y-80796190D01*
X160761904Y-81272380D02*
X160761904Y-80272380D01*
X161142857Y-80272380D01*
X161238095Y-80320000D01*
X161285714Y-80367619D01*
X161333333Y-80462857D01*
X161333333Y-80605714D01*
X161285714Y-80700952D01*
X161238095Y-80748571D01*
X161142857Y-80796190D01*
X160761904Y-80796190D01*
X162190476Y-80605714D02*
X162190476Y-81272380D01*
X161952380Y-80224761D02*
X161714285Y-80939047D01*
X162333333Y-80939047D01*
%TO.C,U1*%
X206488095Y-82252380D02*
X206488095Y-83061904D01*
X206535714Y-83157142D01*
X206583333Y-83204761D01*
X206678571Y-83252380D01*
X206869047Y-83252380D01*
X206964285Y-83204761D01*
X207011904Y-83157142D01*
X207059523Y-83061904D01*
X207059523Y-82252380D01*
X208059523Y-83252380D02*
X207488095Y-83252380D01*
X207773809Y-83252380D02*
X207773809Y-82252380D01*
X207678571Y-82395238D01*
X207583333Y-82490476D01*
X207488095Y-82538095D01*
D11*
%TO.C,C2*%
X214740000Y-79946267D02*
X214740000Y-79653733D01*
X215760000Y-79946267D02*
X215760000Y-79653733D01*
%TO.C,C3*%
X226740000Y-87103733D02*
X226740000Y-87396267D01*
X227760000Y-87103733D02*
X227760000Y-87396267D01*
%TO.C,D12*%
X173050000Y-121015000D02*
X170590000Y-121015000D01*
X170590000Y-121015000D02*
X170590000Y-122485000D01*
X170590000Y-122485000D02*
X173050000Y-122485000D01*
%TO.C,M1*%
X211185000Y-126350000D02*
X211685000Y-126600000D01*
X200835000Y-127300000D02*
X211185000Y-127300000D01*
X211185000Y-127300000D02*
X211185000Y-126350000D01*
X211185000Y-119500000D02*
X211685000Y-119800000D01*
X211685000Y-126600000D02*
X211685000Y-124700000D01*
X211685000Y-114700000D02*
X200835000Y-114700000D01*
X211185000Y-124900000D02*
X211185000Y-119500000D01*
X211685000Y-119800000D02*
X211685000Y-114700000D01*
X211685000Y-124650000D02*
X211185000Y-124900000D01*
X200835000Y-114700000D02*
X200835000Y-127300000D01*
X211685000Y-124700000D02*
X211685000Y-124650000D01*
%TO.C,U2*%
X169500000Y-72615000D02*
X165640000Y-72615000D01*
X165640000Y-84385000D02*
X165640000Y-84140000D01*
X169500000Y-84385000D02*
X173360000Y-84385000D01*
X173360000Y-84140000D02*
X175175000Y-84140000D01*
X169500000Y-72615000D02*
X173360000Y-72615000D01*
X165640000Y-72615000D02*
X165640000Y-72860000D01*
X173360000Y-84385000D02*
X173360000Y-84140000D01*
X173360000Y-72615000D02*
X173360000Y-72860000D01*
X169500000Y-84385000D02*
X165640000Y-84385000D01*
%TO.C,R3*%
X210754724Y-83727500D02*
X210245276Y-83727500D01*
X210754724Y-84772500D02*
X210245276Y-84772500D01*
%TO.C,Y2*%
X218300000Y-77550000D02*
X218300000Y-71800000D01*
X214700000Y-77550000D02*
X218300000Y-77550000D01*
X214700000Y-71800000D02*
X214700000Y-77550000D01*
%TO.C,J4*%
X222755000Y-82245000D02*
X225355000Y-82245000D01*
X222755000Y-79645000D02*
X217615000Y-79645000D01*
X224025000Y-79645000D02*
X225355000Y-79645000D01*
X217615000Y-79645000D02*
X217615000Y-84845000D01*
X225355000Y-82245000D02*
X225355000Y-84845000D01*
X225355000Y-84845000D02*
X217615000Y-84845000D01*
X222755000Y-79645000D02*
X222755000Y-82245000D01*
X225355000Y-79645000D02*
X225355000Y-80975000D01*
%TO.C,R15*%
X187522500Y-81495276D02*
X187522500Y-82004724D01*
X186477500Y-81495276D02*
X186477500Y-82004724D01*
%TO.C,R13*%
X167995276Y-118227500D02*
X168504724Y-118227500D01*
X167995276Y-119272500D02*
X168504724Y-119272500D01*
%TO.C,C5*%
X220896267Y-77160000D02*
X220603733Y-77160000D01*
X220896267Y-76140000D02*
X220603733Y-76140000D01*
%TO.C,J2*%
X229550000Y-119850000D02*
X229550000Y-109150000D01*
X228940000Y-113700000D02*
X228340000Y-113700000D01*
X231850000Y-119850000D02*
X229550000Y-119850000D01*
X228340000Y-115300000D02*
X228940000Y-115300000D01*
X227940000Y-108140000D02*
X227940000Y-111800000D01*
X227940000Y-117200000D02*
X227940000Y-120860000D01*
X231250000Y-108140000D02*
X231250000Y-109150000D01*
X228940000Y-115300000D02*
X228940000Y-117200000D01*
X227640000Y-119910000D02*
X227640000Y-121160000D01*
X234560000Y-108140000D02*
X227940000Y-108140000D01*
X228940000Y-111800000D02*
X228940000Y-113700000D01*
X228940000Y-117200000D02*
X227940000Y-117200000D01*
X227940000Y-111800000D02*
X228940000Y-111800000D01*
X227640000Y-121160000D02*
X228890000Y-121160000D01*
X233850000Y-109150000D02*
X233850000Y-119850000D01*
X231250000Y-120860000D02*
X231250000Y-119850000D01*
X234560000Y-120860000D02*
X234560000Y-108140000D01*
X229550000Y-109150000D02*
X233850000Y-109150000D01*
X227940000Y-120860000D02*
X234560000Y-120860000D01*
X228340000Y-113700000D02*
X228340000Y-115300000D01*
%TO.C,C4*%
X199603733Y-76760000D02*
X199896267Y-76760000D01*
X199603733Y-75740000D02*
X199896267Y-75740000D01*
%TO.C,C7*%
X190646267Y-77490000D02*
X190353733Y-77490000D01*
X190646267Y-78510000D02*
X190353733Y-78510000D01*
%TO.C,C10*%
X179146267Y-86260000D02*
X178853733Y-86260000D01*
X179146267Y-85240000D02*
X178853733Y-85240000D01*
%TO.C,C6*%
X220896267Y-72390000D02*
X220603733Y-72390000D01*
X220896267Y-73410000D02*
X220603733Y-73410000D01*
%TO.C,Y1*%
X184950000Y-72200000D02*
X184950000Y-77950000D01*
X188550000Y-77950000D02*
X188550000Y-72200000D01*
X188550000Y-72200000D02*
X184950000Y-72200000D01*
%TO.C,J1*%
X233975000Y-91550000D02*
X233975000Y-84750000D01*
X229525000Y-90500000D02*
X228775000Y-90500000D01*
X233975000Y-77950000D02*
X233975000Y-84750000D01*
X231025000Y-77200000D02*
X231025000Y-77950000D01*
X228765000Y-77190000D02*
X228765000Y-92310000D01*
X234735000Y-92310000D02*
X234735000Y-77190000D01*
X228475000Y-91350000D02*
X228475000Y-92600000D01*
X228775000Y-92300000D02*
X229525000Y-92300000D01*
X228475000Y-92600000D02*
X229725000Y-92600000D01*
X229525000Y-89000000D02*
X229525000Y-80500000D01*
X229525000Y-92300000D02*
X229525000Y-90500000D01*
X229525000Y-79000000D02*
X229525000Y-77200000D01*
X231025000Y-77950000D02*
X233975000Y-77950000D01*
X228775000Y-79000000D02*
X229525000Y-79000000D01*
X234735000Y-77190000D02*
X228765000Y-77190000D01*
X228775000Y-77200000D02*
X228775000Y-79000000D01*
X229525000Y-77200000D02*
X228775000Y-77200000D01*
X231025000Y-92300000D02*
X231025000Y-91550000D01*
X228775000Y-90500000D02*
X228775000Y-92300000D01*
X228775000Y-80500000D02*
X228775000Y-89000000D01*
X228765000Y-92310000D02*
X234735000Y-92310000D01*
X228775000Y-89000000D02*
X229525000Y-89000000D01*
X231025000Y-91550000D02*
X233975000Y-91550000D01*
X229525000Y-80500000D02*
X228775000Y-80500000D01*
%TO.C,R2*%
X206245276Y-84772500D02*
X206754724Y-84772500D01*
X206245276Y-83727500D02*
X206754724Y-83727500D01*
%TO.C,R1*%
X225245276Y-77772500D02*
X225754724Y-77772500D01*
X225245276Y-76727500D02*
X225754724Y-76727500D01*
%TO.C,J5*%
X222935000Y-119500000D02*
X223435000Y-119800000D01*
X212585000Y-114700000D02*
X212585000Y-127300000D01*
X212585000Y-127300000D02*
X222935000Y-127300000D01*
X222935000Y-127300000D02*
X222935000Y-126350000D01*
X223435000Y-124700000D02*
X223435000Y-124650000D01*
X223435000Y-114700000D02*
X212585000Y-114700000D01*
X223435000Y-124650000D02*
X222935000Y-124900000D01*
X222935000Y-126350000D02*
X223435000Y-126600000D01*
X222935000Y-124900000D02*
X222935000Y-119500000D01*
X223435000Y-119800000D02*
X223435000Y-114700000D01*
X223435000Y-126600000D02*
X223435000Y-124700000D01*
%TO.C,J3*%
X227890000Y-106910000D02*
X229140000Y-106910000D01*
X234810000Y-106610000D02*
X234810000Y-93890000D01*
X228590000Y-101050000D02*
X229190000Y-101050000D01*
X229190000Y-99450000D02*
X228590000Y-99450000D01*
X229800000Y-94900000D02*
X234100000Y-94900000D01*
X228190000Y-102950000D02*
X228190000Y-106610000D01*
X228190000Y-106610000D02*
X234810000Y-106610000D01*
X231500000Y-106610000D02*
X231500000Y-105600000D01*
X234100000Y-94900000D02*
X234100000Y-105600000D01*
X232100000Y-105600000D02*
X229800000Y-105600000D01*
X231500000Y-93890000D02*
X231500000Y-94900000D01*
X228190000Y-97550000D02*
X229190000Y-97550000D01*
X229190000Y-101050000D02*
X229190000Y-102950000D01*
X234810000Y-93890000D02*
X228190000Y-93890000D01*
X229190000Y-97550000D02*
X229190000Y-99450000D01*
X227890000Y-105660000D02*
X227890000Y-106910000D01*
X228590000Y-99450000D02*
X228590000Y-101050000D01*
X228190000Y-93890000D02*
X228190000Y-97550000D01*
X229800000Y-105600000D02*
X229800000Y-94900000D01*
X229190000Y-102950000D02*
X228190000Y-102950000D01*
%TO.C,U3*%
X181000000Y-84560000D02*
X179050000Y-84560000D01*
X181000000Y-79440000D02*
X182950000Y-79440000D01*
X181000000Y-84560000D02*
X182950000Y-84560000D01*
X181000000Y-79440000D02*
X177550000Y-79440000D01*
%TO.C,D11*%
X166590000Y-122485000D02*
X169050000Y-122485000D01*
X166590000Y-121015000D02*
X166590000Y-122485000D01*
X169050000Y-121015000D02*
X166590000Y-121015000D01*
%TO.C,R14*%
X171995276Y-119272500D02*
X172504724Y-119272500D01*
X171995276Y-118227500D02*
X172504724Y-118227500D01*
%TO.C,C11*%
X173040000Y-112664113D02*
X174365000Y-112664113D01*
X173040000Y-112104113D02*
X174035000Y-112104113D01*
X169422000Y-113585113D02*
X170960000Y-113585113D01*
X169671000Y-112584113D02*
X170960000Y-112584113D01*
X173040000Y-112024113D02*
X173971000Y-112024113D01*
X170301000Y-111744113D02*
X170960000Y-111744113D01*
X169420000Y-113705113D02*
X170960000Y-113705113D01*
X173040000Y-113425113D02*
X174565000Y-113425113D01*
X169435000Y-113425113D02*
X170960000Y-113425113D01*
X173040000Y-112224113D02*
X174122000Y-112224113D01*
X173040000Y-111984113D02*
X173937000Y-111984113D01*
X173040000Y-111944113D02*
X173901000Y-111944113D01*
X169572000Y-112824113D02*
X170960000Y-112824113D01*
X169545000Y-112904113D02*
X170960000Y-112904113D01*
X170063000Y-111984113D02*
X170960000Y-111984113D01*
X169439000Y-113385113D02*
X170960000Y-113385113D01*
X169509000Y-113025113D02*
X170960000Y-113025113D01*
X173040000Y-113265113D02*
X174543000Y-113265113D01*
X169480000Y-113145113D02*
X170960000Y-113145113D01*
X170257000Y-111784113D02*
X170960000Y-111784113D01*
X171323000Y-111184113D02*
X172677000Y-111184113D01*
X170395000Y-111664113D02*
X173605000Y-111664113D01*
X173040000Y-113225113D02*
X174536000Y-113225113D01*
X169732000Y-112464113D02*
X170960000Y-112464113D01*
X173040000Y-112944113D02*
X174468000Y-112944113D01*
X169489000Y-113105113D02*
X170960000Y-113105113D01*
X170275000Y-116259888D02*
X170775000Y-116259888D01*
X170446000Y-111624113D02*
X173554000Y-111624113D01*
X173040000Y-113585113D02*
X174578000Y-113585113D01*
X169635000Y-112664113D02*
X170960000Y-112664113D01*
X173040000Y-111704113D02*
X173653000Y-111704113D01*
X169427000Y-113505113D02*
X170960000Y-113505113D01*
X173040000Y-112784113D02*
X174414000Y-112784113D01*
X170099000Y-111944113D02*
X170960000Y-111944113D01*
X173040000Y-113305113D02*
X174550000Y-113305113D01*
X173040000Y-112344113D02*
X174200000Y-112344113D01*
X169532000Y-112944113D02*
X170960000Y-112944113D01*
X169878000Y-112224113D02*
X170960000Y-112224113D01*
X173040000Y-112144113D02*
X174065000Y-112144113D01*
X173040000Y-112704113D02*
X174382000Y-112704113D01*
X169464000Y-113225113D02*
X170960000Y-113225113D01*
X169520000Y-112984113D02*
X170960000Y-112984113D01*
X171482000Y-111144113D02*
X172518000Y-111144113D01*
X170174000Y-111864113D02*
X170960000Y-111864113D01*
X173040000Y-112824113D02*
X174428000Y-112824113D01*
X173040000Y-113145113D02*
X174520000Y-113145113D01*
X170617000Y-111504113D02*
X173383000Y-111504113D01*
X171716000Y-111104113D02*
X172284000Y-111104113D01*
X169776000Y-112384113D02*
X170960000Y-112384113D01*
X173040000Y-112184113D02*
X174095000Y-112184113D01*
X171085000Y-111264113D02*
X172915000Y-111264113D01*
X169499000Y-113065113D02*
X170960000Y-113065113D01*
X173040000Y-112464113D02*
X174268000Y-112464113D01*
X169602000Y-112744113D02*
X170960000Y-112744113D01*
X173040000Y-111864113D02*
X173826000Y-111864113D01*
X170500000Y-111584113D02*
X173500000Y-111584113D01*
X173040000Y-112744113D02*
X174398000Y-112744113D01*
X169851000Y-112264113D02*
X170960000Y-112264113D01*
X173040000Y-112304113D02*
X174175000Y-112304113D01*
X170347000Y-111704113D02*
X170960000Y-111704113D01*
X169710000Y-112504113D02*
X170960000Y-112504113D01*
X169800000Y-112344113D02*
X170960000Y-112344113D01*
X170136000Y-111904113D02*
X170960000Y-111904113D01*
X170902000Y-111344113D02*
X173098000Y-111344113D01*
X173040000Y-112544113D02*
X174310000Y-112544113D01*
X173040000Y-111824113D02*
X173785000Y-111824113D01*
X169586000Y-112784113D02*
X170960000Y-112784113D01*
X173040000Y-112584113D02*
X174329000Y-112584113D01*
X171195000Y-111224113D02*
X172805000Y-111224113D01*
X173040000Y-113705113D02*
X174580000Y-113705113D01*
X170749000Y-111424113D02*
X173251000Y-111424113D01*
X173040000Y-113545113D02*
X174576000Y-113545113D01*
X169431000Y-113465113D02*
X170960000Y-113465113D01*
X169444000Y-113345113D02*
X170960000Y-113345113D01*
X173040000Y-113665113D02*
X174580000Y-113665113D01*
X169996000Y-112064113D02*
X170960000Y-112064113D01*
X169618000Y-112704113D02*
X170960000Y-112704113D01*
X173040000Y-112864113D02*
X174442000Y-112864113D01*
X169472000Y-113185113D02*
X170960000Y-113185113D01*
X169450000Y-113305113D02*
X170960000Y-113305113D01*
X173040000Y-111744113D02*
X173699000Y-111744113D01*
X173040000Y-113345113D02*
X174556000Y-113345113D01*
X170989000Y-111304113D02*
X173011000Y-111304113D01*
X173040000Y-113065113D02*
X174501000Y-113065113D01*
X173040000Y-113505113D02*
X174573000Y-113505113D01*
X173040000Y-113465113D02*
X174569000Y-113465113D01*
X169935000Y-112144113D02*
X170960000Y-112144113D01*
X173040000Y-112384113D02*
X174224000Y-112384113D01*
X173040000Y-113105113D02*
X174511000Y-113105113D01*
X173040000Y-112064113D02*
X174004000Y-112064113D01*
X170525000Y-116509888D02*
X170525000Y-116009888D01*
X169753000Y-112424113D02*
X170960000Y-112424113D01*
X173040000Y-113185113D02*
X174528000Y-113185113D01*
X169905000Y-112184113D02*
X170960000Y-112184113D01*
X169652000Y-112624113D02*
X170960000Y-112624113D01*
X169420000Y-113665113D02*
X170960000Y-113665113D01*
X173040000Y-112904113D02*
X174455000Y-112904113D01*
X169825000Y-112304113D02*
X170960000Y-112304113D01*
X170215000Y-111824113D02*
X170960000Y-111824113D01*
X173040000Y-112424113D02*
X174247000Y-112424113D01*
X173040000Y-112984113D02*
X174480000Y-112984113D01*
X173040000Y-112624113D02*
X174348000Y-112624113D01*
X173040000Y-113625113D02*
X174579000Y-113625113D01*
X173040000Y-111904113D02*
X173864000Y-111904113D01*
X170822000Y-111384113D02*
X173178000Y-111384113D01*
X173040000Y-113385113D02*
X174561000Y-113385113D01*
X169424000Y-113545113D02*
X170960000Y-113545113D01*
X169558000Y-112864113D02*
X170960000Y-112864113D01*
X173040000Y-112264113D02*
X174149000Y-112264113D01*
X169690000Y-112544113D02*
X170960000Y-112544113D01*
X169457000Y-113265113D02*
X170960000Y-113265113D01*
X170557000Y-111544113D02*
X173443000Y-111544113D01*
X169965000Y-112104113D02*
X170960000Y-112104113D01*
X173040000Y-113025113D02*
X174491000Y-113025113D01*
X170029000Y-112024113D02*
X170960000Y-112024113D01*
X173040000Y-112504113D02*
X174290000Y-112504113D01*
X170681000Y-111464113D02*
X173319000Y-111464113D01*
X173040000Y-111784113D02*
X173743000Y-111784113D01*
X169421000Y-113625113D02*
X170960000Y-113625113D01*
X174620000Y-113705113D02*
G75*
G03*
X174620000Y-113705113I-2620000J0D01*
G01*
%TO.C,C1*%
X221101000Y-100264112D02*
X222210000Y-100264112D01*
X224290000Y-100424112D02*
X225497000Y-100424112D01*
X224290000Y-100784112D02*
X225664000Y-100784112D01*
X220670000Y-101705112D02*
X222210000Y-101705112D01*
X220782000Y-100944112D02*
X222210000Y-100944112D01*
X221313000Y-99984112D02*
X222210000Y-99984112D01*
X222966000Y-99104112D02*
X223534000Y-99104112D01*
X220674000Y-101545112D02*
X222210000Y-101545112D01*
X220681000Y-101465112D02*
X222210000Y-101465112D01*
X224290000Y-101345112D02*
X225806000Y-101345112D01*
X224290000Y-101425112D02*
X225815000Y-101425112D01*
X224290000Y-100304112D02*
X225425000Y-100304112D01*
X220694000Y-101345112D02*
X222210000Y-101345112D01*
X220770000Y-100984112D02*
X222210000Y-100984112D01*
X220672000Y-101585112D02*
X222210000Y-101585112D01*
X224290000Y-100664112D02*
X225615000Y-100664112D01*
X221867000Y-99504112D02*
X224633000Y-99504112D01*
X220836000Y-100784112D02*
X222210000Y-100784112D01*
X221050000Y-100344112D02*
X222210000Y-100344112D01*
X220689000Y-101385112D02*
X222210000Y-101385112D01*
X222239000Y-99304112D02*
X224261000Y-99304112D01*
X220685000Y-101425112D02*
X222210000Y-101425112D01*
X220921000Y-100584112D02*
X222210000Y-100584112D01*
X224290000Y-99864112D02*
X225076000Y-99864112D01*
X224290000Y-101625112D02*
X225829000Y-101625112D01*
X222445000Y-99224112D02*
X224055000Y-99224112D01*
X220700000Y-101305112D02*
X222210000Y-101305112D01*
X224290000Y-100384112D02*
X225474000Y-100384112D01*
X221807000Y-99544112D02*
X224693000Y-99544112D01*
X224290000Y-99944112D02*
X225151000Y-99944112D01*
X220677000Y-101505112D02*
X222210000Y-101505112D01*
X224290000Y-100904112D02*
X225705000Y-100904112D01*
X220982000Y-100464112D02*
X222210000Y-100464112D01*
X224290000Y-99704112D02*
X224903000Y-99704112D01*
X221597000Y-99704112D02*
X222210000Y-99704112D01*
X222732000Y-99144112D02*
X223768000Y-99144112D01*
X224290000Y-101505112D02*
X225823000Y-101505112D01*
X221026000Y-100384112D02*
X222210000Y-100384112D01*
X224290000Y-99784112D02*
X224993000Y-99784112D01*
X224290000Y-99744112D02*
X224949000Y-99744112D01*
X224290000Y-100224112D02*
X225372000Y-100224112D01*
X221279000Y-100024112D02*
X222210000Y-100024112D01*
X224290000Y-100864112D02*
X225692000Y-100864112D01*
X220852000Y-100744112D02*
X222210000Y-100744112D01*
X220759000Y-101025112D02*
X222210000Y-101025112D01*
X224290000Y-100504112D02*
X225540000Y-100504112D01*
X220730000Y-101145112D02*
X222210000Y-101145112D01*
X220808000Y-100864112D02*
X222210000Y-100864112D01*
X224290000Y-101705112D02*
X225830000Y-101705112D01*
X224290000Y-101145112D02*
X225770000Y-101145112D01*
X224290000Y-101065112D02*
X225751000Y-101065112D01*
X221551000Y-99744112D02*
X222210000Y-99744112D01*
X222152000Y-99344112D02*
X224348000Y-99344112D01*
X224290000Y-101585112D02*
X225828000Y-101585112D01*
X221075000Y-100304112D02*
X222210000Y-100304112D01*
X220902000Y-100624112D02*
X222210000Y-100624112D01*
X220722000Y-101185112D02*
X222210000Y-101185112D01*
X221128000Y-100224112D02*
X222210000Y-100224112D01*
X220707000Y-101265112D02*
X222210000Y-101265112D01*
X221750000Y-99584112D02*
X224750000Y-99584112D01*
X224290000Y-101305112D02*
X225800000Y-101305112D01*
X224290000Y-100104112D02*
X225285000Y-100104112D01*
X224290000Y-100744112D02*
X225648000Y-100744112D01*
X221349000Y-99944112D02*
X222210000Y-99944112D01*
X222072000Y-99384112D02*
X224428000Y-99384112D01*
X224290000Y-100464112D02*
X225518000Y-100464112D01*
X224290000Y-101105112D02*
X225761000Y-101105112D01*
X224290000Y-100704112D02*
X225632000Y-100704112D01*
X221465000Y-99824112D02*
X222210000Y-99824112D01*
X224290000Y-101665112D02*
X225830000Y-101665112D01*
X224290000Y-101385112D02*
X225811000Y-101385112D01*
X221185000Y-100144112D02*
X222210000Y-100144112D01*
X221155000Y-100184112D02*
X222210000Y-100184112D01*
X220670000Y-101665112D02*
X222210000Y-101665112D01*
X224290000Y-100944112D02*
X225718000Y-100944112D01*
X224290000Y-99824112D02*
X225035000Y-99824112D01*
X220749000Y-101065112D02*
X222210000Y-101065112D01*
X224290000Y-101545112D02*
X225826000Y-101545112D01*
X224290000Y-100584112D02*
X225579000Y-100584112D01*
X224290000Y-100184112D02*
X225345000Y-100184112D01*
X221386000Y-99904112D02*
X222210000Y-99904112D01*
X222573000Y-99184112D02*
X223927000Y-99184112D01*
X220960000Y-100504112D02*
X222210000Y-100504112D01*
X224290000Y-101225112D02*
X225786000Y-101225112D01*
X221696000Y-99624112D02*
X224804000Y-99624112D01*
X224290000Y-100544112D02*
X225560000Y-100544112D01*
X224290000Y-100824112D02*
X225678000Y-100824112D01*
X224290000Y-101265112D02*
X225793000Y-101265112D01*
X220822000Y-100824112D02*
X222210000Y-100824112D01*
X220671000Y-101625112D02*
X222210000Y-101625112D01*
X221424000Y-99864112D02*
X222210000Y-99864112D01*
X221775000Y-104509887D02*
X221775000Y-104009887D01*
X224290000Y-100264112D02*
X225399000Y-100264112D01*
X224290000Y-101465112D02*
X225819000Y-101465112D01*
X221931000Y-99464112D02*
X224569000Y-99464112D01*
X221003000Y-100424112D02*
X222210000Y-100424112D01*
X224290000Y-100024112D02*
X225221000Y-100024112D01*
X221999000Y-99424112D02*
X224501000Y-99424112D01*
X224290000Y-100624112D02*
X225598000Y-100624112D01*
X224290000Y-99984112D02*
X225187000Y-99984112D01*
X224290000Y-100344112D02*
X225450000Y-100344112D01*
X220940000Y-100544112D02*
X222210000Y-100544112D01*
X224290000Y-101025112D02*
X225741000Y-101025112D01*
X222335000Y-99264112D02*
X224165000Y-99264112D01*
X224290000Y-101185112D02*
X225778000Y-101185112D01*
X221246000Y-100064112D02*
X222210000Y-100064112D01*
X220739000Y-101105112D02*
X222210000Y-101105112D01*
X220795000Y-100904112D02*
X222210000Y-100904112D01*
X224290000Y-99904112D02*
X225114000Y-99904112D01*
X220714000Y-101225112D02*
X222210000Y-101225112D01*
X221525000Y-104259887D02*
X222025000Y-104259887D01*
X224290000Y-100984112D02*
X225730000Y-100984112D01*
X221215000Y-100104112D02*
X222210000Y-100104112D01*
X221507000Y-99784112D02*
X222210000Y-99784112D01*
X220885000Y-100664112D02*
X222210000Y-100664112D01*
X224290000Y-100144112D02*
X225315000Y-100144112D01*
X224290000Y-100064112D02*
X225254000Y-100064112D01*
X221645000Y-99664112D02*
X224855000Y-99664112D01*
X220868000Y-100704112D02*
X222210000Y-100704112D01*
X225870000Y-101705112D02*
G75*
G03*
X225870000Y-101705112I-2620000J0D01*
G01*
%TO.C,C9*%
X161353733Y-83490000D02*
X161646267Y-83490000D01*
X161353733Y-84510000D02*
X161646267Y-84510000D01*
%TO.C,C12*%
X160431000Y-113510000D02*
X161960000Y-113510000D01*
X164040000Y-112869000D02*
X165428000Y-112869000D01*
X162482000Y-111189000D02*
X163518000Y-111189000D01*
X161395000Y-111709000D02*
X164605000Y-111709000D01*
X164040000Y-112149000D02*
X165035000Y-112149000D01*
X160572000Y-112869000D02*
X161960000Y-112869000D01*
X160489000Y-113150000D02*
X161960000Y-113150000D01*
X164040000Y-112989000D02*
X165468000Y-112989000D01*
X160435000Y-113470000D02*
X161960000Y-113470000D01*
X164040000Y-113230000D02*
X165528000Y-113230000D01*
X164040000Y-112029000D02*
X164937000Y-112029000D01*
X164040000Y-112069000D02*
X164971000Y-112069000D01*
X160586000Y-112829000D02*
X161960000Y-112829000D01*
X164040000Y-112669000D02*
X165348000Y-112669000D01*
X164040000Y-111989000D02*
X164901000Y-111989000D01*
X161822000Y-111429000D02*
X164178000Y-111429000D01*
X160618000Y-112749000D02*
X161960000Y-112749000D01*
X164040000Y-112349000D02*
X165175000Y-112349000D01*
X164040000Y-113470000D02*
X165565000Y-113470000D01*
X160635000Y-112709000D02*
X161960000Y-112709000D01*
X161174000Y-111909000D02*
X161960000Y-111909000D01*
X160965000Y-112149000D02*
X161960000Y-112149000D01*
X160800000Y-112389000D02*
X161960000Y-112389000D01*
X161275000Y-116304775D02*
X161775000Y-116304775D01*
X161215000Y-111869000D02*
X161960000Y-111869000D01*
X161446000Y-111669000D02*
X164554000Y-111669000D01*
X164040000Y-112949000D02*
X165455000Y-112949000D01*
X162323000Y-111229000D02*
X163677000Y-111229000D01*
X164040000Y-113150000D02*
X165511000Y-113150000D01*
X164040000Y-112909000D02*
X165442000Y-112909000D01*
X164040000Y-112709000D02*
X165365000Y-112709000D01*
X160439000Y-113430000D02*
X161960000Y-113430000D01*
X161099000Y-111989000D02*
X161960000Y-111989000D01*
X161617000Y-111549000D02*
X164383000Y-111549000D01*
X160732000Y-112509000D02*
X161960000Y-112509000D01*
X160935000Y-112189000D02*
X161960000Y-112189000D01*
X161500000Y-111629000D02*
X164500000Y-111629000D01*
X164040000Y-111869000D02*
X164785000Y-111869000D01*
X164040000Y-113630000D02*
X165578000Y-113630000D01*
X160480000Y-113190000D02*
X161960000Y-113190000D01*
X160450000Y-113350000D02*
X161960000Y-113350000D01*
X164040000Y-113029000D02*
X165480000Y-113029000D01*
X164040000Y-113750000D02*
X165580000Y-113750000D01*
X160690000Y-112589000D02*
X161960000Y-112589000D01*
X164040000Y-112229000D02*
X165095000Y-112229000D01*
X160427000Y-113550000D02*
X161960000Y-113550000D01*
X164040000Y-112829000D02*
X165414000Y-112829000D01*
X160420000Y-113750000D02*
X161960000Y-113750000D01*
X160753000Y-112469000D02*
X161960000Y-112469000D01*
X164040000Y-111789000D02*
X164699000Y-111789000D01*
X164040000Y-113710000D02*
X165580000Y-113710000D01*
X164040000Y-113350000D02*
X165550000Y-113350000D01*
X164040000Y-112589000D02*
X165310000Y-112589000D01*
X164040000Y-111749000D02*
X164653000Y-111749000D01*
X164040000Y-113110000D02*
X165501000Y-113110000D01*
X161902000Y-111389000D02*
X164098000Y-111389000D01*
X161681000Y-111509000D02*
X164319000Y-111509000D01*
X160499000Y-113110000D02*
X161960000Y-113110000D01*
X160532000Y-112989000D02*
X161960000Y-112989000D01*
X164040000Y-112309000D02*
X165149000Y-112309000D01*
X164040000Y-112469000D02*
X165247000Y-112469000D01*
X161557000Y-111589000D02*
X164443000Y-111589000D01*
X164040000Y-112629000D02*
X165329000Y-112629000D01*
X164040000Y-113310000D02*
X165543000Y-113310000D01*
X160878000Y-112269000D02*
X161960000Y-112269000D01*
X161301000Y-111789000D02*
X161960000Y-111789000D01*
X160464000Y-113270000D02*
X161960000Y-113270000D01*
X164040000Y-111829000D02*
X164743000Y-111829000D01*
X161525000Y-116554775D02*
X161525000Y-116054775D01*
X164040000Y-113390000D02*
X165556000Y-113390000D01*
X164040000Y-112429000D02*
X165224000Y-112429000D01*
X164040000Y-113070000D02*
X165491000Y-113070000D01*
X161749000Y-111469000D02*
X164251000Y-111469000D01*
X160602000Y-112789000D02*
X161960000Y-112789000D01*
X164040000Y-112509000D02*
X165268000Y-112509000D01*
X161347000Y-111749000D02*
X161960000Y-111749000D01*
X161136000Y-111949000D02*
X161960000Y-111949000D01*
X164040000Y-112549000D02*
X165290000Y-112549000D01*
X160996000Y-112109000D02*
X161960000Y-112109000D01*
X161257000Y-111829000D02*
X161960000Y-111829000D01*
X161989000Y-111349000D02*
X164011000Y-111349000D01*
X161029000Y-112069000D02*
X161960000Y-112069000D01*
X164040000Y-111949000D02*
X164864000Y-111949000D01*
X160776000Y-112429000D02*
X161960000Y-112429000D01*
X160825000Y-112349000D02*
X161960000Y-112349000D01*
X160422000Y-113630000D02*
X161960000Y-113630000D01*
X160905000Y-112229000D02*
X161960000Y-112229000D01*
X164040000Y-113550000D02*
X165573000Y-113550000D01*
X164040000Y-113670000D02*
X165579000Y-113670000D01*
X160509000Y-113070000D02*
X161960000Y-113070000D01*
X164040000Y-112389000D02*
X165200000Y-112389000D01*
X164040000Y-112189000D02*
X165065000Y-112189000D01*
X161063000Y-112029000D02*
X161960000Y-112029000D01*
X164040000Y-112269000D02*
X165122000Y-112269000D01*
X162195000Y-111269000D02*
X163805000Y-111269000D01*
X160851000Y-112309000D02*
X161960000Y-112309000D01*
X160558000Y-112909000D02*
X161960000Y-112909000D01*
X160421000Y-113670000D02*
X161960000Y-113670000D01*
X164040000Y-113510000D02*
X165569000Y-113510000D01*
X160545000Y-112949000D02*
X161960000Y-112949000D01*
X160444000Y-113390000D02*
X161960000Y-113390000D01*
X160652000Y-112669000D02*
X161960000Y-112669000D01*
X160710000Y-112549000D02*
X161960000Y-112549000D01*
X162716000Y-111149000D02*
X163284000Y-111149000D01*
X164040000Y-112749000D02*
X165382000Y-112749000D01*
X164040000Y-111909000D02*
X164826000Y-111909000D01*
X160520000Y-113029000D02*
X161960000Y-113029000D01*
X160424000Y-113590000D02*
X161960000Y-113590000D01*
X164040000Y-113270000D02*
X165536000Y-113270000D01*
X162085000Y-111309000D02*
X163915000Y-111309000D01*
X160472000Y-113230000D02*
X161960000Y-113230000D01*
X164040000Y-113590000D02*
X165576000Y-113590000D01*
X164040000Y-113190000D02*
X165520000Y-113190000D01*
X164040000Y-113430000D02*
X165561000Y-113430000D01*
X164040000Y-112789000D02*
X165398000Y-112789000D01*
X160420000Y-113710000D02*
X161960000Y-113710000D01*
X160457000Y-113310000D02*
X161960000Y-113310000D01*
X160671000Y-112629000D02*
X161960000Y-112629000D01*
X164040000Y-112109000D02*
X165004000Y-112109000D01*
X165620000Y-113750000D02*
G75*
G03*
X165620000Y-113750000I-2620000J0D01*
G01*
%TO.C,C8*%
X190646267Y-73010000D02*
X190353733Y-73010000D01*
X190646267Y-71990000D02*
X190353733Y-71990000D01*
%TO.C,R4*%
X161245276Y-82772500D02*
X161754724Y-82772500D01*
X161245276Y-81727500D02*
X161754724Y-81727500D01*
D10*
%TO.C,U1*%
X203625000Y-80375000D02*
X203625000Y-80050000D01*
X210875000Y-80375000D02*
X210550000Y-80375000D01*
X203625000Y-73125000D02*
X203950000Y-73125000D01*
X203625000Y-73125000D02*
X203625000Y-73450000D01*
X203625000Y-80375000D02*
X203950000Y-80375000D01*
X210875000Y-73125000D02*
X210550000Y-73125000D01*
X210875000Y-80375000D02*
X210875000Y-80150000D01*
X210875000Y-80150000D02*
X212300000Y-80150000D01*
X210875000Y-73125000D02*
X210875000Y-73450000D01*
%TD*%
M02*
