%TF.GenerationSoftware,KiCad,Pcbnew,(6.0.8)*%
%TF.CreationDate,2023-07-18T09:46:37-04:00*%
%TF.ProjectId,Hbrige_MotorController,48627269-6765-45f4-9d6f-746f72436f6e,rev?*%
%TF.SameCoordinates,Original*%
%TF.FileFunction,Paste,Top*%
%TF.FilePolarity,Positive*%
%FSLAX46Y46*%
G04 Gerber Fmt 4.6, Leading zero omitted, Abs format (unit mm)*
G04 Created by KiCad (PCBNEW (6.0.8)) date 2023-07-18 09:46:37*
%MOMM*%
%LPD*%
G01*
G04 APERTURE LIST*
G04 Aperture macros list*
%AMRoundRect*
0 Rectangle with rounded corners*
0 $1 Rounding radius*
0 $2 $3 $4 $5 $6 $7 $8 $9 X,Y pos of 4 corners*
0 Add a 4 corners polygon primitive as box body*
4,1,4,$2,$3,$4,$5,$6,$7,$8,$9,$2,$3,0*
0 Add four circle primitives for the rounded corners*
1,1,$1+$1,$2,$3*
1,1,$1+$1,$4,$5*
1,1,$1+$1,$6,$7*
1,1,$1+$1,$8,$9*
0 Add four rect primitives between the rounded corners*
20,1,$1+$1,$2,$3,$4,$5,0*
20,1,$1+$1,$4,$5,$6,$7,0*
20,1,$1+$1,$6,$7,$8,$9,0*
20,1,$1+$1,$8,$9,$2,$3,0*%
G04 Aperture macros list end*
%ADD10RoundRect,0.237500X0.237500X-0.300000X0.237500X0.300000X-0.237500X0.300000X-0.237500X-0.300000X0*%
%ADD11RoundRect,0.237500X-0.237500X0.300000X-0.237500X-0.300000X0.237500X-0.300000X0.237500X0.300000X0*%
%ADD12RoundRect,0.237500X-0.287500X-0.237500X0.287500X-0.237500X0.287500X0.237500X-0.287500X0.237500X0*%
%ADD13RoundRect,0.150000X0.875000X0.150000X-0.875000X0.150000X-0.875000X-0.150000X0.875000X-0.150000X0*%
%ADD14RoundRect,0.237500X0.250000X0.237500X-0.250000X0.237500X-0.250000X-0.237500X0.250000X-0.237500X0*%
%ADD15R,2.400000X2.650000*%
%ADD16RoundRect,0.237500X-0.237500X0.250000X-0.237500X-0.250000X0.237500X-0.250000X0.237500X0.250000X0*%
%ADD17RoundRect,0.237500X-0.250000X-0.237500X0.250000X-0.237500X0.250000X0.237500X-0.250000X0.237500X0*%
%ADD18RoundRect,0.237500X0.300000X0.237500X-0.300000X0.237500X-0.300000X-0.237500X0.300000X-0.237500X0*%
%ADD19RoundRect,0.237500X-0.300000X-0.237500X0.300000X-0.237500X0.300000X0.237500X-0.300000X0.237500X0*%
%ADD20RoundRect,0.150000X-0.825000X-0.150000X0.825000X-0.150000X0.825000X0.150000X-0.825000X0.150000X0*%
%ADD21R,1.600000X0.550000*%
%ADD22R,0.550000X1.600000*%
G04 APERTURE END LIST*
D10*
%TO.C,C2*%
X215250000Y-80662500D03*
X215250000Y-78937500D03*
%TD*%
D11*
%TO.C,C3*%
X227250000Y-86387500D03*
X227250000Y-88112500D03*
%TD*%
D12*
%TO.C,D12*%
X171375000Y-121750000D03*
X173125000Y-121750000D03*
%TD*%
D13*
%TO.C,U2*%
X174150000Y-83580000D03*
X174150000Y-82310000D03*
X174150000Y-81040000D03*
X174150000Y-79770000D03*
X174150000Y-78500000D03*
X174150000Y-77230000D03*
X174150000Y-75960000D03*
X174150000Y-74690000D03*
X174150000Y-73420000D03*
X164850000Y-73420000D03*
X164850000Y-74690000D03*
X164850000Y-75960000D03*
X164850000Y-77230000D03*
X164850000Y-78500000D03*
X164850000Y-79770000D03*
X164850000Y-81040000D03*
X164850000Y-82310000D03*
X164850000Y-83580000D03*
%TD*%
D14*
%TO.C,R3*%
X211412500Y-84250000D03*
X209587500Y-84250000D03*
%TD*%
D15*
%TO.C,Y2*%
X216500000Y-76675000D03*
X216500000Y-72325000D03*
%TD*%
D16*
%TO.C,R15*%
X187000000Y-80837500D03*
X187000000Y-82662500D03*
%TD*%
D17*
%TO.C,R13*%
X167337500Y-118750000D03*
X169162500Y-118750000D03*
%TD*%
D18*
%TO.C,C5*%
X221612500Y-76650000D03*
X219887500Y-76650000D03*
%TD*%
D19*
%TO.C,C4*%
X198887500Y-76250000D03*
X200612500Y-76250000D03*
%TD*%
D18*
%TO.C,C7*%
X191362500Y-78000000D03*
X189637500Y-78000000D03*
%TD*%
%TO.C,C10*%
X179862500Y-85750000D03*
X178137500Y-85750000D03*
%TD*%
%TO.C,C6*%
X221612500Y-72900000D03*
X219887500Y-72900000D03*
%TD*%
D15*
%TO.C,Y1*%
X186750000Y-73075000D03*
X186750000Y-77425000D03*
%TD*%
D17*
%TO.C,R2*%
X205587500Y-84250000D03*
X207412500Y-84250000D03*
%TD*%
%TO.C,R1*%
X224587500Y-77250000D03*
X226412500Y-77250000D03*
%TD*%
D20*
%TO.C,U3*%
X178525000Y-80095000D03*
X178525000Y-81365000D03*
X178525000Y-82635000D03*
X178525000Y-83905000D03*
X183475000Y-83905000D03*
X183475000Y-82635000D03*
X183475000Y-81365000D03*
X183475000Y-80095000D03*
%TD*%
D12*
%TO.C,D11*%
X167375000Y-121750000D03*
X169125000Y-121750000D03*
%TD*%
D17*
%TO.C,R14*%
X171337500Y-118750000D03*
X173162500Y-118750000D03*
%TD*%
D19*
%TO.C,C9*%
X160637500Y-84000000D03*
X162362500Y-84000000D03*
%TD*%
D18*
%TO.C,C8*%
X191362500Y-72500000D03*
X189637500Y-72500000D03*
%TD*%
D17*
%TO.C,R4*%
X160587500Y-82250000D03*
X162412500Y-82250000D03*
%TD*%
D21*
%TO.C,U1*%
X211500000Y-79550000D03*
X211500000Y-78750000D03*
X211500000Y-77950000D03*
X211500000Y-77150000D03*
X211500000Y-76350000D03*
X211500000Y-75550000D03*
X211500000Y-74750000D03*
X211500000Y-73950000D03*
D22*
X210050000Y-72500000D03*
X209250000Y-72500000D03*
X208450000Y-72500000D03*
X207650000Y-72500000D03*
X206850000Y-72500000D03*
X206050000Y-72500000D03*
X205250000Y-72500000D03*
X204450000Y-72500000D03*
D21*
X203000000Y-73950000D03*
X203000000Y-74750000D03*
X203000000Y-75550000D03*
X203000000Y-76350000D03*
X203000000Y-77150000D03*
X203000000Y-77950000D03*
X203000000Y-78750000D03*
X203000000Y-79550000D03*
D22*
X204450000Y-81000000D03*
X205250000Y-81000000D03*
X206050000Y-81000000D03*
X206850000Y-81000000D03*
X207650000Y-81000000D03*
X208450000Y-81000000D03*
X209250000Y-81000000D03*
X210050000Y-81000000D03*
%TD*%
M02*
