%TF.GenerationSoftware,KiCad,Pcbnew,(6.0.8)*%
%TF.CreationDate,2023-07-18T09:46:37-04:00*%
%TF.ProjectId,Hbrige_MotorController,48627269-6765-45f4-9d6f-746f72436f6e,rev?*%
%TF.SameCoordinates,Original*%
%TF.FileFunction,Legend,Bot*%
%TF.FilePolarity,Positive*%
%FSLAX46Y46*%
G04 Gerber Fmt 4.6, Leading zero omitted, Abs format (unit mm)*
G04 Created by KiCad (PCBNEW (6.0.8)) date 2023-07-18 09:46:37*
%MOMM*%
%LPD*%
G01*
G04 APERTURE LIST*
%ADD10C,0.150000*%
%ADD11C,0.120000*%
G04 APERTURE END LIST*
D10*
%TO.C,R10*%
X197642857Y-94202380D02*
X197976190Y-93726190D01*
X198214285Y-94202380D02*
X198214285Y-93202380D01*
X197833333Y-93202380D01*
X197738095Y-93250000D01*
X197690476Y-93297619D01*
X197642857Y-93392857D01*
X197642857Y-93535714D01*
X197690476Y-93630952D01*
X197738095Y-93678571D01*
X197833333Y-93726190D01*
X198214285Y-93726190D01*
X196690476Y-94202380D02*
X197261904Y-94202380D01*
X196976190Y-94202380D02*
X196976190Y-93202380D01*
X197071428Y-93345238D01*
X197166666Y-93440476D01*
X197261904Y-93488095D01*
X196071428Y-93202380D02*
X195976190Y-93202380D01*
X195880952Y-93250000D01*
X195833333Y-93297619D01*
X195785714Y-93392857D01*
X195738095Y-93583333D01*
X195738095Y-93821428D01*
X195785714Y-94011904D01*
X195833333Y-94107142D01*
X195880952Y-94154761D01*
X195976190Y-94202380D01*
X196071428Y-94202380D01*
X196166666Y-94154761D01*
X196214285Y-94107142D01*
X196261904Y-94011904D01*
X196309523Y-93821428D01*
X196309523Y-93583333D01*
X196261904Y-93392857D01*
X196214285Y-93297619D01*
X196166666Y-93250000D01*
X196071428Y-93202380D01*
%TO.C,D8*%
X186202380Y-97761904D02*
X185202380Y-97761904D01*
X185202380Y-98000000D01*
X185250000Y-98142857D01*
X185345238Y-98238095D01*
X185440476Y-98285714D01*
X185630952Y-98333333D01*
X185773809Y-98333333D01*
X185964285Y-98285714D01*
X186059523Y-98238095D01*
X186154761Y-98142857D01*
X186202380Y-98000000D01*
X186202380Y-97761904D01*
X185630952Y-98904761D02*
X185583333Y-98809523D01*
X185535714Y-98761904D01*
X185440476Y-98714285D01*
X185392857Y-98714285D01*
X185297619Y-98761904D01*
X185250000Y-98809523D01*
X185202380Y-98904761D01*
X185202380Y-99095238D01*
X185250000Y-99190476D01*
X185297619Y-99238095D01*
X185392857Y-99285714D01*
X185440476Y-99285714D01*
X185535714Y-99238095D01*
X185583333Y-99190476D01*
X185630952Y-99095238D01*
X185630952Y-98904761D01*
X185678571Y-98809523D01*
X185726190Y-98761904D01*
X185821428Y-98714285D01*
X186011904Y-98714285D01*
X186107142Y-98761904D01*
X186154761Y-98809523D01*
X186202380Y-98904761D01*
X186202380Y-99095238D01*
X186154761Y-99190476D01*
X186107142Y-99238095D01*
X186011904Y-99285714D01*
X185821428Y-99285714D01*
X185726190Y-99238095D01*
X185678571Y-99190476D01*
X185630952Y-99095238D01*
%TO.C,R11*%
X177642857Y-103702380D02*
X177976190Y-103226190D01*
X178214285Y-103702380D02*
X178214285Y-102702380D01*
X177833333Y-102702380D01*
X177738095Y-102750000D01*
X177690476Y-102797619D01*
X177642857Y-102892857D01*
X177642857Y-103035714D01*
X177690476Y-103130952D01*
X177738095Y-103178571D01*
X177833333Y-103226190D01*
X178214285Y-103226190D01*
X176690476Y-103702380D02*
X177261904Y-103702380D01*
X176976190Y-103702380D02*
X176976190Y-102702380D01*
X177071428Y-102845238D01*
X177166666Y-102940476D01*
X177261904Y-102988095D01*
X175738095Y-103702380D02*
X176309523Y-103702380D01*
X176023809Y-103702380D02*
X176023809Y-102702380D01*
X176119047Y-102845238D01*
X176214285Y-102940476D01*
X176309523Y-102988095D01*
%TO.C,Q3*%
X193845238Y-71697619D02*
X193940476Y-71650000D01*
X194035714Y-71554761D01*
X194178571Y-71411904D01*
X194273809Y-71364285D01*
X194369047Y-71364285D01*
X194321428Y-71602380D02*
X194416666Y-71554761D01*
X194511904Y-71459523D01*
X194559523Y-71269047D01*
X194559523Y-70935714D01*
X194511904Y-70745238D01*
X194416666Y-70650000D01*
X194321428Y-70602380D01*
X194130952Y-70602380D01*
X194035714Y-70650000D01*
X193940476Y-70745238D01*
X193892857Y-70935714D01*
X193892857Y-71269047D01*
X193940476Y-71459523D01*
X194035714Y-71554761D01*
X194130952Y-71602380D01*
X194321428Y-71602380D01*
X193559523Y-70602380D02*
X192940476Y-70602380D01*
X193273809Y-70983333D01*
X193130952Y-70983333D01*
X193035714Y-71030952D01*
X192988095Y-71078571D01*
X192940476Y-71173809D01*
X192940476Y-71411904D01*
X192988095Y-71507142D01*
X193035714Y-71554761D01*
X193130952Y-71602380D01*
X193416666Y-71602380D01*
X193511904Y-71554761D01*
X193559523Y-71507142D01*
%TO.C,D4*%
X205238095Y-94202380D02*
X205238095Y-93202380D01*
X205000000Y-93202380D01*
X204857142Y-93250000D01*
X204761904Y-93345238D01*
X204714285Y-93440476D01*
X204666666Y-93630952D01*
X204666666Y-93773809D01*
X204714285Y-93964285D01*
X204761904Y-94059523D01*
X204857142Y-94154761D01*
X205000000Y-94202380D01*
X205238095Y-94202380D01*
X203809523Y-93535714D02*
X203809523Y-94202380D01*
X204047619Y-93154761D02*
X204285714Y-93869047D01*
X203666666Y-93869047D01*
%TO.C,R9*%
X190666666Y-103632380D02*
X191000000Y-103156190D01*
X191238095Y-103632380D02*
X191238095Y-102632380D01*
X190857142Y-102632380D01*
X190761904Y-102680000D01*
X190714285Y-102727619D01*
X190666666Y-102822857D01*
X190666666Y-102965714D01*
X190714285Y-103060952D01*
X190761904Y-103108571D01*
X190857142Y-103156190D01*
X191238095Y-103156190D01*
X190190476Y-103632380D02*
X190000000Y-103632380D01*
X189904761Y-103584761D01*
X189857142Y-103537142D01*
X189761904Y-103394285D01*
X189714285Y-103203809D01*
X189714285Y-102822857D01*
X189761904Y-102727619D01*
X189809523Y-102680000D01*
X189904761Y-102632380D01*
X190095238Y-102632380D01*
X190190476Y-102680000D01*
X190238095Y-102727619D01*
X190285714Y-102822857D01*
X190285714Y-103060952D01*
X190238095Y-103156190D01*
X190190476Y-103203809D01*
X190095238Y-103251428D01*
X189904761Y-103251428D01*
X189809523Y-103203809D01*
X189761904Y-103156190D01*
X189714285Y-103060952D01*
%TO.C,C14*%
X170142857Y-110537142D02*
X170190476Y-110584761D01*
X170333333Y-110632380D01*
X170428571Y-110632380D01*
X170571428Y-110584761D01*
X170666666Y-110489523D01*
X170714285Y-110394285D01*
X170761904Y-110203809D01*
X170761904Y-110060952D01*
X170714285Y-109870476D01*
X170666666Y-109775238D01*
X170571428Y-109680000D01*
X170428571Y-109632380D01*
X170333333Y-109632380D01*
X170190476Y-109680000D01*
X170142857Y-109727619D01*
X169190476Y-110632380D02*
X169761904Y-110632380D01*
X169476190Y-110632380D02*
X169476190Y-109632380D01*
X169571428Y-109775238D01*
X169666666Y-109870476D01*
X169761904Y-109918095D01*
X168333333Y-109965714D02*
X168333333Y-110632380D01*
X168571428Y-109584761D02*
X168809523Y-110299047D01*
X168190476Y-110299047D01*
%TO.C,D10*%
X175452380Y-97285714D02*
X174452380Y-97285714D01*
X174452380Y-97523809D01*
X174500000Y-97666666D01*
X174595238Y-97761904D01*
X174690476Y-97809523D01*
X174880952Y-97857142D01*
X175023809Y-97857142D01*
X175214285Y-97809523D01*
X175309523Y-97761904D01*
X175404761Y-97666666D01*
X175452380Y-97523809D01*
X175452380Y-97285714D01*
X175452380Y-98809523D02*
X175452380Y-98238095D01*
X175452380Y-98523809D02*
X174452380Y-98523809D01*
X174595238Y-98428571D01*
X174690476Y-98333333D01*
X174738095Y-98238095D01*
X174452380Y-99428571D02*
X174452380Y-99523809D01*
X174500000Y-99619047D01*
X174547619Y-99666666D01*
X174642857Y-99714285D01*
X174833333Y-99761904D01*
X175071428Y-99761904D01*
X175261904Y-99714285D01*
X175357142Y-99666666D01*
X175404761Y-99619047D01*
X175452380Y-99523809D01*
X175452380Y-99428571D01*
X175404761Y-99333333D01*
X175357142Y-99285714D01*
X175261904Y-99238095D01*
X175071428Y-99190476D01*
X174833333Y-99190476D01*
X174642857Y-99238095D01*
X174547619Y-99285714D01*
X174500000Y-99333333D01*
X174452380Y-99428571D01*
%TO.C,R7*%
X200916666Y-106522380D02*
X201250000Y-106046190D01*
X201488095Y-106522380D02*
X201488095Y-105522380D01*
X201107142Y-105522380D01*
X201011904Y-105570000D01*
X200964285Y-105617619D01*
X200916666Y-105712857D01*
X200916666Y-105855714D01*
X200964285Y-105950952D01*
X201011904Y-105998571D01*
X201107142Y-106046190D01*
X201488095Y-106046190D01*
X200583333Y-105522380D02*
X199916666Y-105522380D01*
X200345238Y-106522380D01*
%TO.C,Q1*%
X180345238Y-71697619D02*
X180440476Y-71650000D01*
X180535714Y-71554761D01*
X180678571Y-71411904D01*
X180773809Y-71364285D01*
X180869047Y-71364285D01*
X180821428Y-71602380D02*
X180916666Y-71554761D01*
X181011904Y-71459523D01*
X181059523Y-71269047D01*
X181059523Y-70935714D01*
X181011904Y-70745238D01*
X180916666Y-70650000D01*
X180821428Y-70602380D01*
X180630952Y-70602380D01*
X180535714Y-70650000D01*
X180440476Y-70745238D01*
X180392857Y-70935714D01*
X180392857Y-71269047D01*
X180440476Y-71459523D01*
X180535714Y-71554761D01*
X180630952Y-71602380D01*
X180821428Y-71602380D01*
X179440476Y-71602380D02*
X180011904Y-71602380D01*
X179726190Y-71602380D02*
X179726190Y-70602380D01*
X179821428Y-70745238D01*
X179916666Y-70840476D01*
X180011904Y-70888095D01*
%TO.C,C13*%
X163287142Y-97657142D02*
X163334761Y-97609523D01*
X163382380Y-97466666D01*
X163382380Y-97371428D01*
X163334761Y-97228571D01*
X163239523Y-97133333D01*
X163144285Y-97085714D01*
X162953809Y-97038095D01*
X162810952Y-97038095D01*
X162620476Y-97085714D01*
X162525238Y-97133333D01*
X162430000Y-97228571D01*
X162382380Y-97371428D01*
X162382380Y-97466666D01*
X162430000Y-97609523D01*
X162477619Y-97657142D01*
X163382380Y-98609523D02*
X163382380Y-98038095D01*
X163382380Y-98323809D02*
X162382380Y-98323809D01*
X162525238Y-98228571D01*
X162620476Y-98133333D01*
X162668095Y-98038095D01*
X162382380Y-98942857D02*
X162382380Y-99561904D01*
X162763333Y-99228571D01*
X162763333Y-99371428D01*
X162810952Y-99466666D01*
X162858571Y-99514285D01*
X162953809Y-99561904D01*
X163191904Y-99561904D01*
X163287142Y-99514285D01*
X163334761Y-99466666D01*
X163382380Y-99371428D01*
X163382380Y-99085714D01*
X163334761Y-98990476D01*
X163287142Y-98942857D01*
%TO.C,D2*%
X173738095Y-92552380D02*
X173738095Y-91552380D01*
X173500000Y-91552380D01*
X173357142Y-91600000D01*
X173261904Y-91695238D01*
X173214285Y-91790476D01*
X173166666Y-91980952D01*
X173166666Y-92123809D01*
X173214285Y-92314285D01*
X173261904Y-92409523D01*
X173357142Y-92504761D01*
X173500000Y-92552380D01*
X173738095Y-92552380D01*
X172785714Y-91647619D02*
X172738095Y-91600000D01*
X172642857Y-91552380D01*
X172404761Y-91552380D01*
X172309523Y-91600000D01*
X172261904Y-91647619D01*
X172214285Y-91742857D01*
X172214285Y-91838095D01*
X172261904Y-91980952D01*
X172833333Y-92552380D01*
X172214285Y-92552380D01*
%TO.C,R12*%
X178142857Y-94272380D02*
X178476190Y-93796190D01*
X178714285Y-94272380D02*
X178714285Y-93272380D01*
X178333333Y-93272380D01*
X178238095Y-93320000D01*
X178190476Y-93367619D01*
X178142857Y-93462857D01*
X178142857Y-93605714D01*
X178190476Y-93700952D01*
X178238095Y-93748571D01*
X178333333Y-93796190D01*
X178714285Y-93796190D01*
X177190476Y-94272380D02*
X177761904Y-94272380D01*
X177476190Y-94272380D02*
X177476190Y-93272380D01*
X177571428Y-93415238D01*
X177666666Y-93510476D01*
X177761904Y-93558095D01*
X176809523Y-93367619D02*
X176761904Y-93320000D01*
X176666666Y-93272380D01*
X176428571Y-93272380D01*
X176333333Y-93320000D01*
X176285714Y-93367619D01*
X176238095Y-93462857D01*
X176238095Y-93558095D01*
X176285714Y-93700952D01*
X176857142Y-94272380D01*
X176238095Y-94272380D01*
%TO.C,C17*%
X179177142Y-97857142D02*
X179224761Y-97809523D01*
X179272380Y-97666666D01*
X179272380Y-97571428D01*
X179224761Y-97428571D01*
X179129523Y-97333333D01*
X179034285Y-97285714D01*
X178843809Y-97238095D01*
X178700952Y-97238095D01*
X178510476Y-97285714D01*
X178415238Y-97333333D01*
X178320000Y-97428571D01*
X178272380Y-97571428D01*
X178272380Y-97666666D01*
X178320000Y-97809523D01*
X178367619Y-97857142D01*
X179272380Y-98809523D02*
X179272380Y-98238095D01*
X179272380Y-98523809D02*
X178272380Y-98523809D01*
X178415238Y-98428571D01*
X178510476Y-98333333D01*
X178558095Y-98238095D01*
X178272380Y-99142857D02*
X178272380Y-99809523D01*
X179272380Y-99380952D01*
%TO.C,R8*%
X200916666Y-91352380D02*
X201250000Y-90876190D01*
X201488095Y-91352380D02*
X201488095Y-90352380D01*
X201107142Y-90352380D01*
X201011904Y-90400000D01*
X200964285Y-90447619D01*
X200916666Y-90542857D01*
X200916666Y-90685714D01*
X200964285Y-90780952D01*
X201011904Y-90828571D01*
X201107142Y-90876190D01*
X201488095Y-90876190D01*
X200345238Y-90780952D02*
X200440476Y-90733333D01*
X200488095Y-90685714D01*
X200535714Y-90590476D01*
X200535714Y-90542857D01*
X200488095Y-90447619D01*
X200440476Y-90400000D01*
X200345238Y-90352380D01*
X200154761Y-90352380D01*
X200059523Y-90400000D01*
X200011904Y-90447619D01*
X199964285Y-90542857D01*
X199964285Y-90590476D01*
X200011904Y-90685714D01*
X200059523Y-90733333D01*
X200154761Y-90780952D01*
X200345238Y-90780952D01*
X200440476Y-90828571D01*
X200488095Y-90876190D01*
X200535714Y-90971428D01*
X200535714Y-91161904D01*
X200488095Y-91257142D01*
X200440476Y-91304761D01*
X200345238Y-91352380D01*
X200154761Y-91352380D01*
X200059523Y-91304761D01*
X200011904Y-91257142D01*
X199964285Y-91161904D01*
X199964285Y-90971428D01*
X200011904Y-90876190D01*
X200059523Y-90828571D01*
X200154761Y-90780952D01*
%TO.C,D3*%
X173988095Y-105102380D02*
X173988095Y-104102380D01*
X173750000Y-104102380D01*
X173607142Y-104150000D01*
X173511904Y-104245238D01*
X173464285Y-104340476D01*
X173416666Y-104530952D01*
X173416666Y-104673809D01*
X173464285Y-104864285D01*
X173511904Y-104959523D01*
X173607142Y-105054761D01*
X173750000Y-105102380D01*
X173988095Y-105102380D01*
X173083333Y-104102380D02*
X172464285Y-104102380D01*
X172797619Y-104483333D01*
X172654761Y-104483333D01*
X172559523Y-104530952D01*
X172511904Y-104578571D01*
X172464285Y-104673809D01*
X172464285Y-104911904D01*
X172511904Y-105007142D01*
X172559523Y-105054761D01*
X172654761Y-105102380D01*
X172940476Y-105102380D01*
X173035714Y-105054761D01*
X173083333Y-105007142D01*
%TO.C,C18*%
X214287142Y-97857142D02*
X214334761Y-97809523D01*
X214382380Y-97666666D01*
X214382380Y-97571428D01*
X214334761Y-97428571D01*
X214239523Y-97333333D01*
X214144285Y-97285714D01*
X213953809Y-97238095D01*
X213810952Y-97238095D01*
X213620476Y-97285714D01*
X213525238Y-97333333D01*
X213430000Y-97428571D01*
X213382380Y-97571428D01*
X213382380Y-97666666D01*
X213430000Y-97809523D01*
X213477619Y-97857142D01*
X214382380Y-98809523D02*
X214382380Y-98238095D01*
X214382380Y-98523809D02*
X213382380Y-98523809D01*
X213525238Y-98428571D01*
X213620476Y-98333333D01*
X213668095Y-98238095D01*
X213810952Y-99380952D02*
X213763333Y-99285714D01*
X213715714Y-99238095D01*
X213620476Y-99190476D01*
X213572857Y-99190476D01*
X213477619Y-99238095D01*
X213430000Y-99285714D01*
X213382380Y-99380952D01*
X213382380Y-99571428D01*
X213430000Y-99666666D01*
X213477619Y-99714285D01*
X213572857Y-99761904D01*
X213620476Y-99761904D01*
X213715714Y-99714285D01*
X213763333Y-99666666D01*
X213810952Y-99571428D01*
X213810952Y-99380952D01*
X213858571Y-99285714D01*
X213906190Y-99238095D01*
X214001428Y-99190476D01*
X214191904Y-99190476D01*
X214287142Y-99238095D01*
X214334761Y-99285714D01*
X214382380Y-99380952D01*
X214382380Y-99571428D01*
X214334761Y-99666666D01*
X214287142Y-99714285D01*
X214191904Y-99761904D01*
X214001428Y-99761904D01*
X213906190Y-99714285D01*
X213858571Y-99666666D01*
X213810952Y-99571428D01*
%TO.C,U5*%
X205261904Y-94552380D02*
X205261904Y-95361904D01*
X205214285Y-95457142D01*
X205166666Y-95504761D01*
X205071428Y-95552380D01*
X204880952Y-95552380D01*
X204785714Y-95504761D01*
X204738095Y-95457142D01*
X204690476Y-95361904D01*
X204690476Y-94552380D01*
X203738095Y-94552380D02*
X204214285Y-94552380D01*
X204261904Y-95028571D01*
X204214285Y-94980952D01*
X204119047Y-94933333D01*
X203880952Y-94933333D01*
X203785714Y-94980952D01*
X203738095Y-95028571D01*
X203690476Y-95123809D01*
X203690476Y-95361904D01*
X203738095Y-95457142D01*
X203785714Y-95504761D01*
X203880952Y-95552380D01*
X204119047Y-95552380D01*
X204214285Y-95504761D01*
X204261904Y-95457142D01*
%TO.C,R5*%
X173166666Y-88302380D02*
X173500000Y-87826190D01*
X173738095Y-88302380D02*
X173738095Y-87302380D01*
X173357142Y-87302380D01*
X173261904Y-87350000D01*
X173214285Y-87397619D01*
X173166666Y-87492857D01*
X173166666Y-87635714D01*
X173214285Y-87730952D01*
X173261904Y-87778571D01*
X173357142Y-87826190D01*
X173738095Y-87826190D01*
X172261904Y-87302380D02*
X172738095Y-87302380D01*
X172785714Y-87778571D01*
X172738095Y-87730952D01*
X172642857Y-87683333D01*
X172404761Y-87683333D01*
X172309523Y-87730952D01*
X172261904Y-87778571D01*
X172214285Y-87873809D01*
X172214285Y-88111904D01*
X172261904Y-88207142D01*
X172309523Y-88254761D01*
X172404761Y-88302380D01*
X172642857Y-88302380D01*
X172738095Y-88254761D01*
X172785714Y-88207142D01*
%TO.C,Q4*%
X193845238Y-126397619D02*
X193940476Y-126350000D01*
X194035714Y-126254761D01*
X194178571Y-126111904D01*
X194273809Y-126064285D01*
X194369047Y-126064285D01*
X194321428Y-126302380D02*
X194416666Y-126254761D01*
X194511904Y-126159523D01*
X194559523Y-125969047D01*
X194559523Y-125635714D01*
X194511904Y-125445238D01*
X194416666Y-125350000D01*
X194321428Y-125302380D01*
X194130952Y-125302380D01*
X194035714Y-125350000D01*
X193940476Y-125445238D01*
X193892857Y-125635714D01*
X193892857Y-125969047D01*
X193940476Y-126159523D01*
X194035714Y-126254761D01*
X194130952Y-126302380D01*
X194321428Y-126302380D01*
X193035714Y-125635714D02*
X193035714Y-126302380D01*
X193273809Y-125254761D02*
X193511904Y-125969047D01*
X192892857Y-125969047D01*
%TO.C,Q2*%
X180345238Y-126397619D02*
X180440476Y-126350000D01*
X180535714Y-126254761D01*
X180678571Y-126111904D01*
X180773809Y-126064285D01*
X180869047Y-126064285D01*
X180821428Y-126302380D02*
X180916666Y-126254761D01*
X181011904Y-126159523D01*
X181059523Y-125969047D01*
X181059523Y-125635714D01*
X181011904Y-125445238D01*
X180916666Y-125350000D01*
X180821428Y-125302380D01*
X180630952Y-125302380D01*
X180535714Y-125350000D01*
X180440476Y-125445238D01*
X180392857Y-125635714D01*
X180392857Y-125969047D01*
X180440476Y-126159523D01*
X180535714Y-126254761D01*
X180630952Y-126302380D01*
X180821428Y-126302380D01*
X180011904Y-125397619D02*
X179964285Y-125350000D01*
X179869047Y-125302380D01*
X179630952Y-125302380D01*
X179535714Y-125350000D01*
X179488095Y-125397619D01*
X179440476Y-125492857D01*
X179440476Y-125588095D01*
X179488095Y-125730952D01*
X180059523Y-126302380D01*
X179440476Y-126302380D01*
%TO.C,D5*%
X201488095Y-95552380D02*
X201488095Y-94552380D01*
X201250000Y-94552380D01*
X201107142Y-94600000D01*
X201011904Y-94695238D01*
X200964285Y-94790476D01*
X200916666Y-94980952D01*
X200916666Y-95123809D01*
X200964285Y-95314285D01*
X201011904Y-95409523D01*
X201107142Y-95504761D01*
X201250000Y-95552380D01*
X201488095Y-95552380D01*
X200011904Y-94552380D02*
X200488095Y-94552380D01*
X200535714Y-95028571D01*
X200488095Y-94980952D01*
X200392857Y-94933333D01*
X200154761Y-94933333D01*
X200059523Y-94980952D01*
X200011904Y-95028571D01*
X199964285Y-95123809D01*
X199964285Y-95361904D01*
X200011904Y-95457142D01*
X200059523Y-95504761D01*
X200154761Y-95552380D01*
X200392857Y-95552380D01*
X200488095Y-95504761D01*
X200535714Y-95457142D01*
%TO.C,C15*%
X192677142Y-97857142D02*
X192724761Y-97809523D01*
X192772380Y-97666666D01*
X192772380Y-97571428D01*
X192724761Y-97428571D01*
X192629523Y-97333333D01*
X192534285Y-97285714D01*
X192343809Y-97238095D01*
X192200952Y-97238095D01*
X192010476Y-97285714D01*
X191915238Y-97333333D01*
X191820000Y-97428571D01*
X191772380Y-97571428D01*
X191772380Y-97666666D01*
X191820000Y-97809523D01*
X191867619Y-97857142D01*
X192772380Y-98809523D02*
X192772380Y-98238095D01*
X192772380Y-98523809D02*
X191772380Y-98523809D01*
X191915238Y-98428571D01*
X192010476Y-98333333D01*
X192058095Y-98238095D01*
X191772380Y-99714285D02*
X191772380Y-99238095D01*
X192248571Y-99190476D01*
X192200952Y-99238095D01*
X192153333Y-99333333D01*
X192153333Y-99571428D01*
X192200952Y-99666666D01*
X192248571Y-99714285D01*
X192343809Y-99761904D01*
X192581904Y-99761904D01*
X192677142Y-99714285D01*
X192724761Y-99666666D01*
X192772380Y-99571428D01*
X192772380Y-99333333D01*
X192724761Y-99238095D01*
X192677142Y-99190476D01*
%TO.C,D7*%
X188952380Y-97761904D02*
X187952380Y-97761904D01*
X187952380Y-98000000D01*
X188000000Y-98142857D01*
X188095238Y-98238095D01*
X188190476Y-98285714D01*
X188380952Y-98333333D01*
X188523809Y-98333333D01*
X188714285Y-98285714D01*
X188809523Y-98238095D01*
X188904761Y-98142857D01*
X188952380Y-98000000D01*
X188952380Y-97761904D01*
X187952380Y-98666666D02*
X187952380Y-99333333D01*
X188952380Y-98904761D01*
%TO.C,C19*%
X205142857Y-90287142D02*
X205190476Y-90334761D01*
X205333333Y-90382380D01*
X205428571Y-90382380D01*
X205571428Y-90334761D01*
X205666666Y-90239523D01*
X205714285Y-90144285D01*
X205761904Y-89953809D01*
X205761904Y-89810952D01*
X205714285Y-89620476D01*
X205666666Y-89525238D01*
X205571428Y-89430000D01*
X205428571Y-89382380D01*
X205333333Y-89382380D01*
X205190476Y-89430000D01*
X205142857Y-89477619D01*
X204190476Y-90382380D02*
X204761904Y-90382380D01*
X204476190Y-90382380D02*
X204476190Y-89382380D01*
X204571428Y-89525238D01*
X204666666Y-89620476D01*
X204761904Y-89668095D01*
X203714285Y-90382380D02*
X203523809Y-90382380D01*
X203428571Y-90334761D01*
X203380952Y-90287142D01*
X203285714Y-90144285D01*
X203238095Y-89953809D01*
X203238095Y-89572857D01*
X203285714Y-89477619D01*
X203333333Y-89430000D01*
X203428571Y-89382380D01*
X203619047Y-89382380D01*
X203714285Y-89430000D01*
X203761904Y-89477619D01*
X203809523Y-89572857D01*
X203809523Y-89810952D01*
X203761904Y-89906190D01*
X203714285Y-89953809D01*
X203619047Y-90001428D01*
X203428571Y-90001428D01*
X203333333Y-89953809D01*
X203285714Y-89906190D01*
X203238095Y-89810952D01*
%TO.C,D6*%
X201488095Y-102402380D02*
X201488095Y-101402380D01*
X201250000Y-101402380D01*
X201107142Y-101450000D01*
X201011904Y-101545238D01*
X200964285Y-101640476D01*
X200916666Y-101830952D01*
X200916666Y-101973809D01*
X200964285Y-102164285D01*
X201011904Y-102259523D01*
X201107142Y-102354761D01*
X201250000Y-102402380D01*
X201488095Y-102402380D01*
X200059523Y-101402380D02*
X200250000Y-101402380D01*
X200345238Y-101450000D01*
X200392857Y-101497619D01*
X200488095Y-101640476D01*
X200535714Y-101830952D01*
X200535714Y-102211904D01*
X200488095Y-102307142D01*
X200440476Y-102354761D01*
X200345238Y-102402380D01*
X200154761Y-102402380D01*
X200059523Y-102354761D01*
X200011904Y-102307142D01*
X199964285Y-102211904D01*
X199964285Y-101973809D01*
X200011904Y-101878571D01*
X200059523Y-101830952D01*
X200154761Y-101783333D01*
X200345238Y-101783333D01*
X200440476Y-101830952D01*
X200488095Y-101878571D01*
X200535714Y-101973809D01*
%TO.C,D9*%
X199452380Y-97761904D02*
X198452380Y-97761904D01*
X198452380Y-98000000D01*
X198500000Y-98142857D01*
X198595238Y-98238095D01*
X198690476Y-98285714D01*
X198880952Y-98333333D01*
X199023809Y-98333333D01*
X199214285Y-98285714D01*
X199309523Y-98238095D01*
X199404761Y-98142857D01*
X199452380Y-98000000D01*
X199452380Y-97761904D01*
X199452380Y-98809523D02*
X199452380Y-99000000D01*
X199404761Y-99095238D01*
X199357142Y-99142857D01*
X199214285Y-99238095D01*
X199023809Y-99285714D01*
X198642857Y-99285714D01*
X198547619Y-99238095D01*
X198500000Y-99190476D01*
X198452380Y-99095238D01*
X198452380Y-98904761D01*
X198500000Y-98809523D01*
X198547619Y-98761904D01*
X198642857Y-98714285D01*
X198880952Y-98714285D01*
X198976190Y-98761904D01*
X199023809Y-98809523D01*
X199071428Y-98904761D01*
X199071428Y-99095238D01*
X199023809Y-99190476D01*
X198976190Y-99238095D01*
X198880952Y-99285714D01*
%TO.C,R6*%
X173416666Y-109382380D02*
X173750000Y-108906190D01*
X173988095Y-109382380D02*
X173988095Y-108382380D01*
X173607142Y-108382380D01*
X173511904Y-108430000D01*
X173464285Y-108477619D01*
X173416666Y-108572857D01*
X173416666Y-108715714D01*
X173464285Y-108810952D01*
X173511904Y-108858571D01*
X173607142Y-108906190D01*
X173988095Y-108906190D01*
X172559523Y-108382380D02*
X172750000Y-108382380D01*
X172845238Y-108430000D01*
X172892857Y-108477619D01*
X172988095Y-108620476D01*
X173035714Y-108810952D01*
X173035714Y-109191904D01*
X172988095Y-109287142D01*
X172940476Y-109334761D01*
X172845238Y-109382380D01*
X172654761Y-109382380D01*
X172559523Y-109334761D01*
X172511904Y-109287142D01*
X172464285Y-109191904D01*
X172464285Y-108953809D01*
X172511904Y-108858571D01*
X172559523Y-108810952D01*
X172654761Y-108763333D01*
X172845238Y-108763333D01*
X172940476Y-108810952D01*
X172988095Y-108858571D01*
X173035714Y-108953809D01*
%TO.C,D1*%
X170238095Y-103702380D02*
X170238095Y-102702380D01*
X170000000Y-102702380D01*
X169857142Y-102750000D01*
X169761904Y-102845238D01*
X169714285Y-102940476D01*
X169666666Y-103130952D01*
X169666666Y-103273809D01*
X169714285Y-103464285D01*
X169761904Y-103559523D01*
X169857142Y-103654761D01*
X170000000Y-103702380D01*
X170238095Y-103702380D01*
X168714285Y-103702380D02*
X169285714Y-103702380D01*
X169000000Y-103702380D02*
X169000000Y-102702380D01*
X169095238Y-102845238D01*
X169190476Y-102940476D01*
X169285714Y-102988095D01*
%TO.C,U4*%
X170261904Y-101352380D02*
X170261904Y-102161904D01*
X170214285Y-102257142D01*
X170166666Y-102304761D01*
X170071428Y-102352380D01*
X169880952Y-102352380D01*
X169785714Y-102304761D01*
X169738095Y-102257142D01*
X169690476Y-102161904D01*
X169690476Y-101352380D01*
X168785714Y-101685714D02*
X168785714Y-102352380D01*
X169023809Y-101304761D02*
X169261904Y-102019047D01*
X168642857Y-102019047D01*
D11*
%TO.C,R10*%
X196745276Y-94727500D02*
X197254724Y-94727500D01*
X196745276Y-95772500D02*
X197254724Y-95772500D01*
%TO.C,D8*%
X184500000Y-96250000D02*
X184500000Y-100150000D01*
X182500000Y-96250000D02*
X182500000Y-100150000D01*
X182500000Y-96250000D02*
X184500000Y-96250000D01*
%TO.C,R11*%
X177254724Y-102272500D02*
X176745276Y-102272500D01*
X177254724Y-101227500D02*
X176745276Y-101227500D01*
%TO.C,Q3*%
X198870000Y-72150000D02*
X188630000Y-72150000D01*
X196290000Y-88040000D02*
X196290000Y-90580000D01*
X191210000Y-88040000D02*
X191210000Y-90580000D01*
X198870000Y-72150000D02*
X198870000Y-88040000D01*
X198870000Y-88040000D02*
X188630000Y-88040000D01*
X188630000Y-72150000D02*
X188630000Y-88040000D01*
X193750000Y-88040000D02*
X193750000Y-90580000D01*
%TO.C,D4*%
X202250000Y-90750000D02*
X206150000Y-90750000D01*
X202250000Y-92750000D02*
X202250000Y-90750000D01*
X202250000Y-92750000D02*
X206150000Y-92750000D01*
%TO.C,R9*%
X190245276Y-101227500D02*
X190754724Y-101227500D01*
X190245276Y-102272500D02*
X190754724Y-102272500D01*
%TO.C,C14*%
X169353733Y-109260000D02*
X169646267Y-109260000D01*
X169353733Y-108240000D02*
X169646267Y-108240000D01*
%TO.C,D10*%
X176000000Y-96250000D02*
X176000000Y-100150000D01*
X176000000Y-96250000D02*
X178000000Y-96250000D01*
X178000000Y-96250000D02*
X178000000Y-100150000D01*
%TO.C,R7*%
X201004724Y-106977500D02*
X200495276Y-106977500D01*
X201004724Y-108022500D02*
X200495276Y-108022500D01*
%TO.C,Q1*%
X182790000Y-88040000D02*
X182790000Y-90580000D01*
X177710000Y-88040000D02*
X177710000Y-90580000D01*
X185370000Y-88040000D02*
X175130000Y-88040000D01*
X185370000Y-72150000D02*
X175130000Y-72150000D01*
X175130000Y-72150000D02*
X175130000Y-88040000D01*
X185370000Y-72150000D02*
X185370000Y-88040000D01*
X180250000Y-88040000D02*
X180250000Y-90580000D01*
%TO.C,C13*%
X160990000Y-98446267D02*
X160990000Y-98153733D01*
X162010000Y-98446267D02*
X162010000Y-98153733D01*
%TO.C,D2*%
X172100000Y-94350000D02*
X172100000Y-93150000D01*
X173950000Y-93150000D02*
X172100000Y-93150000D01*
X173950000Y-94350000D02*
X172100000Y-94350000D01*
%TO.C,R12*%
X177754724Y-95772500D02*
X177245276Y-95772500D01*
X177754724Y-94727500D02*
X177245276Y-94727500D01*
%TO.C,C17*%
X180760000Y-98353733D02*
X180760000Y-98646267D01*
X179740000Y-98353733D02*
X179740000Y-98646267D01*
%TO.C,R8*%
X201004724Y-90022500D02*
X200495276Y-90022500D01*
X201004724Y-88977500D02*
X200495276Y-88977500D01*
%TO.C,D3*%
X173950000Y-103850000D02*
X172100000Y-103850000D01*
X172100000Y-103850000D02*
X172100000Y-102650000D01*
X173950000Y-102650000D02*
X172100000Y-102650000D01*
%TO.C,C18*%
X213010000Y-98646267D02*
X213010000Y-98353733D01*
X211990000Y-98646267D02*
X211990000Y-98353733D01*
%TO.C,U5*%
X204500000Y-101060000D02*
X202550000Y-101060000D01*
X204500000Y-95940000D02*
X207950000Y-95940000D01*
X204500000Y-95940000D02*
X202550000Y-95940000D01*
X204500000Y-101060000D02*
X206450000Y-101060000D01*
%TO.C,R5*%
X172995276Y-90022500D02*
X173504724Y-90022500D01*
X172995276Y-88977500D02*
X173504724Y-88977500D01*
%TO.C,Q4*%
X188630000Y-108960000D02*
X198870000Y-108960000D01*
X188630000Y-124850000D02*
X198870000Y-124850000D01*
X193750000Y-108960000D02*
X193750000Y-106420000D01*
X191210000Y-108960000D02*
X191210000Y-106420000D01*
X188630000Y-124850000D02*
X188630000Y-108960000D01*
X198870000Y-124850000D02*
X198870000Y-108960000D01*
X196290000Y-108960000D02*
X196290000Y-106420000D01*
%TO.C,Q2*%
X182790000Y-108960000D02*
X182790000Y-106420000D01*
X175130000Y-124850000D02*
X185370000Y-124850000D01*
X177710000Y-108960000D02*
X177710000Y-106420000D01*
X175130000Y-108960000D02*
X185370000Y-108960000D01*
X185370000Y-124850000D02*
X185370000Y-108960000D01*
X175130000Y-124850000D02*
X175130000Y-108960000D01*
X180250000Y-108960000D02*
X180250000Y-106420000D01*
%TO.C,D5*%
X200050000Y-93150000D02*
X201900000Y-93150000D01*
X200050000Y-94350000D02*
X201900000Y-94350000D01*
X201900000Y-93150000D02*
X201900000Y-94350000D01*
%TO.C,C15*%
X193240000Y-98353733D02*
X193240000Y-98646267D01*
X194260000Y-98353733D02*
X194260000Y-98646267D01*
%TO.C,D7*%
X189500000Y-96250000D02*
X191500000Y-96250000D01*
X189500000Y-96250000D02*
X189500000Y-100150000D01*
X191500000Y-96250000D02*
X191500000Y-100150000D01*
%TO.C,C19*%
X204353733Y-87990000D02*
X204646267Y-87990000D01*
X204353733Y-89010000D02*
X204646267Y-89010000D01*
%TO.C,D6*%
X200050000Y-103850000D02*
X201900000Y-103850000D01*
X201900000Y-102650000D02*
X201900000Y-103850000D01*
X200050000Y-102650000D02*
X201900000Y-102650000D01*
%TO.C,D9*%
X198000000Y-96250000D02*
X198000000Y-100150000D01*
X196000000Y-96250000D02*
X198000000Y-96250000D01*
X196000000Y-96250000D02*
X196000000Y-100150000D01*
%TO.C,R6*%
X172995276Y-108022500D02*
X173504724Y-108022500D01*
X172995276Y-106977500D02*
X173504724Y-106977500D01*
%TO.C,D1*%
X171750000Y-104250000D02*
X167850000Y-104250000D01*
X171750000Y-104250000D02*
X171750000Y-106250000D01*
X171750000Y-106250000D02*
X167850000Y-106250000D01*
%TO.C,U4*%
X169500000Y-95940000D02*
X171450000Y-95940000D01*
X169500000Y-101060000D02*
X166050000Y-101060000D01*
X169500000Y-101060000D02*
X171450000Y-101060000D01*
X169500000Y-95940000D02*
X167550000Y-95940000D01*
%TD*%
M02*
