M48
; DRILL file {KiCad (6.0.8)} date Tue Jul 18 09:46:42 2023
; FORMAT={-:-/ absolute / metric / decimal}
; #@! TF.CreationDate,2023-07-18T09:46:42-04:00
; #@! TF.GenerationSoftware,Kicad,Pcbnew,(6.0.8)
; #@! TF.FileFunction,Plated,1,2,PTH
FMAT,2
METRIC
; #@! TA.AperFunction,Plated,PTH,ViaDrill
T1C0.400
; #@! TA.AperFunction,Plated,PTH,ComponentDrill
T2C0.800
; #@! TA.AperFunction,Plated,PTH,ComponentDrill
T3C0.950
; #@! TA.AperFunction,Plated,PTH,ComponentDrill
T4C1.000
; #@! TA.AperFunction,Plated,PTH,ComponentDrill
T5C1.100
; #@! TA.AperFunction,Plated,PTH,ComponentDrill
T6C1.320
%
G90
G05
T1
X164.5Y-96.0
X168.5Y-75.0
X170.0Y-73.25
X173.75Y-72.0
X174.0Y-97.0
X174.0Y-101.5
X178.75Y-78.25
X180.75Y-80.5
X181.0Y-85.75
X181.25Y-81.75
X181.75Y-85.0
X183.2Y-71.9
X183.75Y-78.0
X194.75Y-77.5
X194.75Y-94.0
X195.0Y-80.75
X195.25Y-99.0
X197.0Y-79.75
X197.25Y-73.25
X198.0Y-74.5
X201.75Y-71.0
X202.0Y-84.0
X202.5Y-70.25
X204.75Y-103.75
X205.5Y-102.0
X206.0Y-69.25
X206.0Y-74.5
X206.0Y-78.5
X206.75Y-87.25
X207.0Y-70.0
X207.5Y-75.5
X208.0Y-103.75
X208.5Y-85.25
X208.5Y-104.75
X208.75Y-78.75
X209.137Y-76.113
X210.0Y-77.0
X210.05Y-71.05
X210.25Y-82.25
X211.25Y-83.0
X212.775Y-82.975
X213.0Y-72.0
X213.0Y-80.75
X213.125Y-100.875
X213.25Y-85.25
X213.5Y-82.25
X214.75Y-70.5
X214.75Y-95.0
X215.125Y-93.875
X215.75Y-83.25
X215.75Y-96.75
X216.0Y-81.75
X216.0Y-85.0
X218.25Y-78.5
X218.5Y-88.75
X219.25Y-94.75
X219.75Y-91.25
X222.25Y-94.5
X222.5Y-87.25
X223.0Y-78.25
X224.0Y-75.0
X224.5Y-88.0
X227.5Y-91.25
T2
X163.0Y-112.75
X163.0Y-114.75
X172.0Y-112.705
X172.0Y-114.705
X223.25Y-100.705
X223.25Y-102.705
T3
X231.225Y-79.75
X231.225Y-82.25
X231.225Y-84.75
X231.225Y-87.25
X231.225Y-89.75
X231.25Y-110.75
X231.25Y-113.25
X231.25Y-115.75
X231.25Y-118.25
X231.5Y-96.5
X231.5Y-99.0
X231.5Y-101.5
X231.5Y-104.0
T4
X218.945Y-80.975
X218.945Y-83.515
X221.485Y-80.975
X221.485Y-83.515
X224.025Y-80.975
X224.025Y-83.515
T5
X177.71Y-91.73
X177.71Y-105.27
X180.25Y-91.73
X180.25Y-105.27
X182.79Y-91.73
X182.79Y-105.27
X191.21Y-91.73
X191.21Y-105.27
X193.75Y-91.73
X193.75Y-105.27
X196.29Y-91.73
X196.29Y-105.27
T6
X203.485Y-121.0
X208.485Y-121.0
X215.235Y-121.0
X220.235Y-121.0
T0
M30
