%TF.GenerationSoftware,KiCad,Pcbnew,(6.0.8)*%
%TF.CreationDate,2023-07-18T09:46:37-04:00*%
%TF.ProjectId,Hbrige_MotorController,48627269-6765-45f4-9d6f-746f72436f6e,rev?*%
%TF.SameCoordinates,Original*%
%TF.FileFunction,Soldermask,Top*%
%TF.FilePolarity,Negative*%
%FSLAX46Y46*%
G04 Gerber Fmt 4.6, Leading zero omitted, Abs format (unit mm)*
G04 Created by KiCad (PCBNEW (6.0.8)) date 2023-07-18 09:46:37*
%MOMM*%
%LPD*%
G01*
G04 APERTURE LIST*
G04 Aperture macros list*
%AMRoundRect*
0 Rectangle with rounded corners*
0 $1 Rounding radius*
0 $2 $3 $4 $5 $6 $7 $8 $9 X,Y pos of 4 corners*
0 Add a 4 corners polygon primitive as box body*
4,1,4,$2,$3,$4,$5,$6,$7,$8,$9,$2,$3,0*
0 Add four circle primitives for the rounded corners*
1,1,$1+$1,$2,$3*
1,1,$1+$1,$4,$5*
1,1,$1+$1,$6,$7*
1,1,$1+$1,$8,$9*
0 Add four rect primitives between the rounded corners*
20,1,$1+$1,$2,$3,$4,$5,0*
20,1,$1+$1,$4,$5,$6,$7,0*
20,1,$1+$1,$6,$7,$8,$9,0*
20,1,$1+$1,$8,$9,$2,$3,0*%
G04 Aperture macros list end*
%ADD10RoundRect,0.237500X0.237500X-0.300000X0.237500X0.300000X-0.237500X0.300000X-0.237500X-0.300000X0*%
%ADD11RoundRect,0.237500X-0.237500X0.300000X-0.237500X-0.300000X0.237500X-0.300000X0.237500X0.300000X0*%
%ADD12RoundRect,0.237500X-0.287500X-0.237500X0.287500X-0.237500X0.287500X0.237500X-0.287500X0.237500X0*%
%ADD13R,1.980000X3.960000*%
%ADD14O,1.980000X3.960000*%
%ADD15RoundRect,0.150000X0.875000X0.150000X-0.875000X0.150000X-0.875000X-0.150000X0.875000X-0.150000X0*%
%ADD16RoundRect,0.237500X0.250000X0.237500X-0.250000X0.237500X-0.250000X-0.237500X0.250000X-0.237500X0*%
%ADD17C,3.200000*%
%ADD18R,2.400000X2.650000*%
%ADD19R,1.700000X1.700000*%
%ADD20O,1.700000X1.700000*%
%ADD21RoundRect,0.237500X-0.237500X0.250000X-0.237500X-0.250000X0.237500X-0.250000X0.237500X0.250000X0*%
%ADD22RoundRect,0.237500X-0.250000X-0.237500X0.250000X-0.237500X0.250000X0.237500X-0.250000X0.237500X0*%
%ADD23RoundRect,0.237500X0.300000X0.237500X-0.300000X0.237500X-0.300000X-0.237500X0.300000X-0.237500X0*%
%ADD24C,1.250000*%
%ADD25RoundRect,0.250000X0.725000X-0.600000X0.725000X0.600000X-0.725000X0.600000X-0.725000X-0.600000X0*%
%ADD26O,1.950000X1.700000*%
%ADD27RoundRect,0.237500X-0.300000X-0.237500X0.300000X-0.237500X0.300000X0.237500X-0.300000X0.237500X0*%
%ADD28RoundRect,0.150000X-0.825000X-0.150000X0.825000X-0.150000X0.825000X0.150000X-0.825000X0.150000X0*%
%ADD29R,1.600000X1.600000*%
%ADD30C,1.600000*%
%ADD31R,1.600000X0.550000*%
%ADD32R,0.550000X1.600000*%
%ADD33O,3.500000X3.500000*%
%ADD34R,1.905000X2.000000*%
%ADD35O,1.905000X2.000000*%
G04 APERTURE END LIST*
D10*
%TO.C,C2*%
X215250000Y-80662500D03*
X215250000Y-78937500D03*
%TD*%
D11*
%TO.C,C3*%
X227250000Y-86387500D03*
X227250000Y-88112500D03*
%TD*%
D12*
%TO.C,D12*%
X171375000Y-121750000D03*
X173125000Y-121750000D03*
%TD*%
D13*
%TO.C,M1*%
X203485000Y-121000000D03*
D14*
X208485000Y-121000000D03*
%TD*%
D15*
%TO.C,U2*%
X174150000Y-83580000D03*
X174150000Y-82310000D03*
X174150000Y-81040000D03*
X174150000Y-79770000D03*
X174150000Y-78500000D03*
X174150000Y-77230000D03*
X174150000Y-75960000D03*
X174150000Y-74690000D03*
X174150000Y-73420000D03*
X164850000Y-73420000D03*
X164850000Y-74690000D03*
X164850000Y-75960000D03*
X164850000Y-77230000D03*
X164850000Y-78500000D03*
X164850000Y-79770000D03*
X164850000Y-81040000D03*
X164850000Y-82310000D03*
X164850000Y-83580000D03*
%TD*%
D16*
%TO.C,R3*%
X211412500Y-84250000D03*
X209587500Y-84250000D03*
%TD*%
D17*
%TO.C,*%
X234000000Y-125000000D03*
%TD*%
D18*
%TO.C,Y2*%
X216500000Y-76675000D03*
X216500000Y-72325000D03*
%TD*%
D19*
%TO.C,J4*%
X224025000Y-80975000D03*
D20*
X224025000Y-83515000D03*
X221485000Y-80975000D03*
X221485000Y-83515000D03*
X218945000Y-80975000D03*
X218945000Y-83515000D03*
%TD*%
D21*
%TO.C,R15*%
X187000000Y-80837500D03*
X187000000Y-82662500D03*
%TD*%
D22*
%TO.C,R13*%
X167337500Y-118750000D03*
X169162500Y-118750000D03*
%TD*%
D23*
%TO.C,C5*%
X221612500Y-76650000D03*
X219887500Y-76650000D03*
%TD*%
D24*
%TO.C,J2*%
X232850000Y-119850000D03*
D25*
X231250000Y-118250000D03*
D26*
X231250000Y-115750000D03*
X231250000Y-113250000D03*
X231250000Y-110750000D03*
%TD*%
D27*
%TO.C,C4*%
X198887500Y-76250000D03*
X200612500Y-76250000D03*
%TD*%
D23*
%TO.C,C7*%
X191362500Y-78000000D03*
X189637500Y-78000000D03*
%TD*%
%TO.C,C10*%
X179862500Y-85750000D03*
X178137500Y-85750000D03*
%TD*%
%TO.C,C6*%
X221612500Y-72900000D03*
X219887500Y-72900000D03*
%TD*%
D18*
%TO.C,Y1*%
X186750000Y-73075000D03*
X186750000Y-77425000D03*
%TD*%
D25*
%TO.C,J1*%
X231225000Y-89750000D03*
D26*
X231225000Y-87250000D03*
X231225000Y-84750000D03*
X231225000Y-82250000D03*
X231225000Y-79750000D03*
%TD*%
D17*
%TO.C,*%
X159500000Y-125000000D03*
%TD*%
D22*
%TO.C,R2*%
X205587500Y-84250000D03*
X207412500Y-84250000D03*
%TD*%
%TO.C,R1*%
X224587500Y-77250000D03*
X226412500Y-77250000D03*
%TD*%
D13*
%TO.C,J5*%
X215235000Y-121000000D03*
D14*
X220235000Y-121000000D03*
%TD*%
D24*
%TO.C,J3*%
X233100000Y-105600000D03*
D25*
X231500000Y-104000000D03*
D26*
X231500000Y-101500000D03*
X231500000Y-99000000D03*
X231500000Y-96500000D03*
%TD*%
D28*
%TO.C,U3*%
X178525000Y-80095000D03*
X178525000Y-81365000D03*
X178525000Y-82635000D03*
X178525000Y-83905000D03*
X183475000Y-83905000D03*
X183475000Y-82635000D03*
X183475000Y-81365000D03*
X183475000Y-80095000D03*
%TD*%
D12*
%TO.C,D11*%
X167375000Y-121750000D03*
X169125000Y-121750000D03*
%TD*%
D17*
%TO.C,*%
X159500000Y-71750000D03*
%TD*%
D22*
%TO.C,R14*%
X171337500Y-118750000D03*
X173162500Y-118750000D03*
%TD*%
D29*
%TO.C,C11*%
X172000000Y-114705113D03*
D30*
X172000000Y-112705113D03*
%TD*%
D29*
%TO.C,C1*%
X223250000Y-102705112D03*
D30*
X223250000Y-100705112D03*
%TD*%
D27*
%TO.C,C9*%
X160637500Y-84000000D03*
X162362500Y-84000000D03*
%TD*%
D17*
%TO.C,*%
X234000000Y-71750000D03*
%TD*%
D29*
%TO.C,C12*%
X163000000Y-114750000D03*
D30*
X163000000Y-112750000D03*
%TD*%
D23*
%TO.C,C8*%
X191362500Y-72500000D03*
X189637500Y-72500000D03*
%TD*%
D22*
%TO.C,R4*%
X160587500Y-82250000D03*
X162412500Y-82250000D03*
%TD*%
D31*
%TO.C,U1*%
X211500000Y-79550000D03*
X211500000Y-78750000D03*
X211500000Y-77950000D03*
X211500000Y-77150000D03*
X211500000Y-76350000D03*
X211500000Y-75550000D03*
X211500000Y-74750000D03*
X211500000Y-73950000D03*
D32*
X210050000Y-72500000D03*
X209250000Y-72500000D03*
X208450000Y-72500000D03*
X207650000Y-72500000D03*
X206850000Y-72500000D03*
X206050000Y-72500000D03*
X205250000Y-72500000D03*
X204450000Y-72500000D03*
D31*
X203000000Y-73950000D03*
X203000000Y-74750000D03*
X203000000Y-75550000D03*
X203000000Y-76350000D03*
X203000000Y-77150000D03*
X203000000Y-77950000D03*
X203000000Y-78750000D03*
X203000000Y-79550000D03*
D32*
X204450000Y-81000000D03*
X205250000Y-81000000D03*
X206050000Y-81000000D03*
X206850000Y-81000000D03*
X207650000Y-81000000D03*
X208450000Y-81000000D03*
X209250000Y-81000000D03*
X210050000Y-81000000D03*
%TD*%
D33*
%TO.C,Q3*%
X193750000Y-75070000D03*
D34*
X196290000Y-91730000D03*
D35*
X193750000Y-91730000D03*
X191210000Y-91730000D03*
%TD*%
D33*
%TO.C,Q1*%
X180250000Y-75070000D03*
D34*
X182790000Y-91730000D03*
D35*
X180250000Y-91730000D03*
X177710000Y-91730000D03*
%TD*%
D33*
%TO.C,Q4*%
X193750000Y-121930000D03*
D34*
X191210000Y-105270000D03*
D35*
X193750000Y-105270000D03*
X196290000Y-105270000D03*
%TD*%
D33*
%TO.C,Q2*%
X180250000Y-121930000D03*
D34*
X177710000Y-105270000D03*
D35*
X180250000Y-105270000D03*
X182790000Y-105270000D03*
%TD*%
M02*
