%TF.GenerationSoftware,KiCad,Pcbnew,(6.0.8)*%
%TF.CreationDate,2023-07-18T09:46:37-04:00*%
%TF.ProjectId,Hbrige_MotorController,48627269-6765-45f4-9d6f-746f72436f6e,rev?*%
%TF.SameCoordinates,Original*%
%TF.FileFunction,Soldermask,Bot*%
%TF.FilePolarity,Negative*%
%FSLAX46Y46*%
G04 Gerber Fmt 4.6, Leading zero omitted, Abs format (unit mm)*
G04 Created by KiCad (PCBNEW (6.0.8)) date 2023-07-18 09:46:37*
%MOMM*%
%LPD*%
G01*
G04 APERTURE LIST*
G04 Aperture macros list*
%AMRoundRect*
0 Rectangle with rounded corners*
0 $1 Rounding radius*
0 $2 $3 $4 $5 $6 $7 $8 $9 X,Y pos of 4 corners*
0 Add a 4 corners polygon primitive as box body*
4,1,4,$2,$3,$4,$5,$6,$7,$8,$9,$2,$3,0*
0 Add four circle primitives for the rounded corners*
1,1,$1+$1,$2,$3*
1,1,$1+$1,$4,$5*
1,1,$1+$1,$6,$7*
1,1,$1+$1,$8,$9*
0 Add four rect primitives between the rounded corners*
20,1,$1+$1,$2,$3,$4,$5,0*
20,1,$1+$1,$4,$5,$6,$7,0*
20,1,$1+$1,$6,$7,$8,$9,0*
20,1,$1+$1,$8,$9,$2,$3,0*%
G04 Aperture macros list end*
%ADD10R,1.980000X3.960000*%
%ADD11O,1.980000X3.960000*%
%ADD12C,3.200000*%
%ADD13R,1.700000X1.700000*%
%ADD14O,1.700000X1.700000*%
%ADD15C,1.250000*%
%ADD16RoundRect,0.250000X0.725000X-0.600000X0.725000X0.600000X-0.725000X0.600000X-0.725000X-0.600000X0*%
%ADD17O,1.950000X1.700000*%
%ADD18R,1.600000X1.600000*%
%ADD19C,1.600000*%
%ADD20RoundRect,0.237500X-0.250000X-0.237500X0.250000X-0.237500X0.250000X0.237500X-0.250000X0.237500X0*%
%ADD21R,1.200000X0.900000*%
%ADD22RoundRect,0.237500X0.250000X0.237500X-0.250000X0.237500X-0.250000X-0.237500X0.250000X-0.237500X0*%
%ADD23O,3.500000X3.500000*%
%ADD24R,1.905000X2.000000*%
%ADD25O,1.905000X2.000000*%
%ADD26R,0.900000X1.200000*%
%ADD27RoundRect,0.237500X-0.300000X-0.237500X0.300000X-0.237500X0.300000X0.237500X-0.300000X0.237500X0*%
%ADD28RoundRect,0.237500X0.237500X-0.300000X0.237500X0.300000X-0.237500X0.300000X-0.237500X-0.300000X0*%
%ADD29R,0.600000X0.700000*%
%ADD30RoundRect,0.237500X-0.237500X0.300000X-0.237500X-0.300000X0.237500X-0.300000X0.237500X0.300000X0*%
%ADD31RoundRect,0.150000X0.825000X0.150000X-0.825000X0.150000X-0.825000X-0.150000X0.825000X-0.150000X0*%
%ADD32RoundRect,0.150000X-0.825000X-0.150000X0.825000X-0.150000X0.825000X0.150000X-0.825000X0.150000X0*%
G04 APERTURE END LIST*
D10*
%TO.C,M1*%
X203485000Y-121000000D03*
D11*
X208485000Y-121000000D03*
%TD*%
D12*
%TO.C,*%
X234000000Y-125000000D03*
%TD*%
D13*
%TO.C,J4*%
X224025000Y-80975000D03*
D14*
X224025000Y-83515000D03*
X221485000Y-80975000D03*
X221485000Y-83515000D03*
X218945000Y-80975000D03*
X218945000Y-83515000D03*
%TD*%
D15*
%TO.C,J2*%
X232850000Y-119850000D03*
D16*
X231250000Y-118250000D03*
D17*
X231250000Y-115750000D03*
X231250000Y-113250000D03*
X231250000Y-110750000D03*
%TD*%
D16*
%TO.C,J1*%
X231225000Y-89750000D03*
D17*
X231225000Y-87250000D03*
X231225000Y-84750000D03*
X231225000Y-82250000D03*
X231225000Y-79750000D03*
%TD*%
D12*
%TO.C,*%
X159500000Y-125000000D03*
%TD*%
D10*
%TO.C,J5*%
X215235000Y-121000000D03*
D11*
X220235000Y-121000000D03*
%TD*%
D15*
%TO.C,J3*%
X233100000Y-105600000D03*
D16*
X231500000Y-104000000D03*
D17*
X231500000Y-101500000D03*
X231500000Y-99000000D03*
X231500000Y-96500000D03*
%TD*%
D12*
%TO.C,*%
X159500000Y-71750000D03*
%TD*%
D18*
%TO.C,C11*%
X172000000Y-114705113D03*
D19*
X172000000Y-112705113D03*
%TD*%
D18*
%TO.C,C1*%
X223250000Y-102705112D03*
D19*
X223250000Y-100705112D03*
%TD*%
D12*
%TO.C,*%
X234000000Y-71750000D03*
%TD*%
D18*
%TO.C,C12*%
X163000000Y-114750000D03*
D19*
X163000000Y-112750000D03*
%TD*%
D20*
%TO.C,R10*%
X196087500Y-95250000D03*
X197912500Y-95250000D03*
%TD*%
D21*
%TO.C,D8*%
X183500000Y-96850000D03*
X183500000Y-100150000D03*
%TD*%
D22*
%TO.C,R11*%
X177912500Y-101750000D03*
X176087500Y-101750000D03*
%TD*%
D23*
%TO.C,Q3*%
X193750000Y-75070000D03*
D24*
X196290000Y-91730000D03*
D25*
X193750000Y-91730000D03*
X191210000Y-91730000D03*
%TD*%
D26*
%TO.C,D4*%
X202850000Y-91750000D03*
X206150000Y-91750000D03*
%TD*%
D20*
%TO.C,R9*%
X189587500Y-101750000D03*
X191412500Y-101750000D03*
%TD*%
D27*
%TO.C,C14*%
X168637500Y-108750000D03*
X170362500Y-108750000D03*
%TD*%
D21*
%TO.C,D10*%
X177000000Y-96850000D03*
X177000000Y-100150000D03*
%TD*%
D22*
%TO.C,R7*%
X201662500Y-107500000D03*
X199837500Y-107500000D03*
%TD*%
D23*
%TO.C,Q1*%
X180250000Y-75070000D03*
D24*
X182790000Y-91730000D03*
D25*
X180250000Y-91730000D03*
X177710000Y-91730000D03*
%TD*%
D28*
%TO.C,C13*%
X161500000Y-99162500D03*
X161500000Y-97437500D03*
%TD*%
D29*
%TO.C,D2*%
X172550000Y-93750000D03*
X173950000Y-93750000D03*
%TD*%
D22*
%TO.C,R12*%
X178412500Y-95250000D03*
X176587500Y-95250000D03*
%TD*%
D30*
%TO.C,C17*%
X180250000Y-97637500D03*
X180250000Y-99362500D03*
%TD*%
D22*
%TO.C,R8*%
X201662500Y-89500000D03*
X199837500Y-89500000D03*
%TD*%
D29*
%TO.C,D3*%
X172550000Y-103250000D03*
X173950000Y-103250000D03*
%TD*%
D28*
%TO.C,C18*%
X212500000Y-99362500D03*
X212500000Y-97637500D03*
%TD*%
D31*
%TO.C,U5*%
X206975000Y-96595000D03*
X206975000Y-97865000D03*
X206975000Y-99135000D03*
X206975000Y-100405000D03*
X202025000Y-100405000D03*
X202025000Y-99135000D03*
X202025000Y-97865000D03*
X202025000Y-96595000D03*
%TD*%
D20*
%TO.C,R5*%
X172337500Y-89500000D03*
X174162500Y-89500000D03*
%TD*%
D23*
%TO.C,Q4*%
X193750000Y-121930000D03*
D24*
X191210000Y-105270000D03*
D25*
X193750000Y-105270000D03*
X196290000Y-105270000D03*
%TD*%
D23*
%TO.C,Q2*%
X180250000Y-121930000D03*
D24*
X177710000Y-105270000D03*
D25*
X180250000Y-105270000D03*
X182790000Y-105270000D03*
%TD*%
D29*
%TO.C,D5*%
X201450000Y-93750000D03*
X200050000Y-93750000D03*
%TD*%
D30*
%TO.C,C15*%
X193750000Y-97637500D03*
X193750000Y-99362500D03*
%TD*%
D21*
%TO.C,D7*%
X190500000Y-96850000D03*
X190500000Y-100150000D03*
%TD*%
D27*
%TO.C,C19*%
X203637500Y-88500000D03*
X205362500Y-88500000D03*
%TD*%
D29*
%TO.C,D6*%
X201450000Y-103250000D03*
X200050000Y-103250000D03*
%TD*%
D21*
%TO.C,D9*%
X197000000Y-96850000D03*
X197000000Y-100150000D03*
%TD*%
D20*
%TO.C,R6*%
X172337500Y-107500000D03*
X174162500Y-107500000D03*
%TD*%
D26*
%TO.C,D1*%
X171150000Y-105250000D03*
X167850000Y-105250000D03*
%TD*%
D32*
%TO.C,U4*%
X167025000Y-100405000D03*
X167025000Y-99135000D03*
X167025000Y-97865000D03*
X167025000Y-96595000D03*
X171975000Y-96595000D03*
X171975000Y-97865000D03*
X171975000Y-99135000D03*
X171975000Y-100405000D03*
%TD*%
M02*
